<?xml version="1.0" encoding="UTF-8"?>
<!DOCTYPE svg PUBLIC "-//W3C//DTD SVG 1.1//EN" "http://www.w3.org/Graphics/SVG/1.1/DTD/svg11.dtd">
<!-- Creator: CorelDRAW 2018 (64-Bit) -->
<svg xmlns="http://www.w3.org/2000/svg" xml:space="preserve" width="42cm" height="42.0001cm" version="1.1" style="shape-rendering:geometricPrecision; text-rendering:geometricPrecision; image-rendering:optimizeQuality; fill-rule:evenodd; clip-rule:evenodd"
viewBox="0 0 42000 42000.05"
 xmlns:xlink="http://www.w3.org/1999/xlink">
 <defs>
  <style type="text/css">
   <![CDATA[
    .fil0 {fill:white}
    .fil2 {fill:black;fill-rule:nonzero}
    .fil3 {fill:#000066;fill-rule:nonzero}
    .fil1 {fill:#CC9933;fill-rule:nonzero}
   ]]>
  </style>
 </defs>
 <g id="Layer_x0020_1">
  <metadata id="CorelCorpID_0Corel-Layer"/>
  <rect class="fil0" x="-0.02" y="0" width="42000" height="42000.05"/>
  <path class="fil1" d="M18266.45 7397.71l2002.16 -745.9 2031.58 -755.72 2061.05 -775.34 2100.32 -775.34 58.89 -19.64 49.06 -9.8 29.44 -9.83 19.64 9.83 9.8 9.8 0 29.45 -9.8 39.25 -19.64 49.08 -68.69 166.85 -58.89 117.77 -58.89 88.34 -39.25 49.05 -29.44 19.64 -49.08 19.64 -78.53 29.44 -107.94 49.06 -147.22 58.88 -166.85 58.89 -206.11 78.52 -225.74 88.34 -264.99 98.13 -284.61 117.78 -323.87 117.77 -353.33 127.61 -382.76 147.21 -412.21 157.03 -441.65 157.02 -471.1 176.66 -480.93 186.49 -451.46 166.84 -431.82 166.85 -402.4 147.22 -372.94 137.41 -343.51 137.39 -314.08 127.6 -294.43 107.94 -264.99 107.97 -235.55 98.14 -206.11 78.52 -186.47 78.53 -147.21 68.69 -127.58 58.89 -98.16 49.08 -68.7 39.25 39.25 -176.66 68.72 -176.66 68.69 -186.47 88.33 -186.49 0 0zm12719.59 3130.84l29.44 -58.89 29.44 -39.27 29.45 -9.81 9.83 19.64 0 107.94 -39.28 186.5 -39.25 186.46 -49.08 166.86 -49.05 157.02 -49.08 137.41 -49.08 127.58 -49.06 117.78 -58.89 107.97 -68.72 98.13 -58.88 78.53 -68.7 68.69 -68.69 49.08 -68.72 49.06 -78.5 29.44 -78.52 19.64 -78.53 9.81 -166.83 -19.62 -137.41 -58.89 -127.58 -88.33 -98.16 -127.6 -68.69 -166.83 -58.89 -196.3 -29.44 -235.55 -9.81 -274.8 9.81 -363.15 39.25 -363.13 58.88 -372.96 98.16 -372.93 117.78 -372.96 137.39 -382.77 166.85 -392.57 196.3 -392.6 49.06 -88.33 49.08 -78.5 29.44 -68.71 39.25 -58.89 29.44 -39.25 19.64 -29.45 19.64 -29.44 9.8 0 9.81 9.81 0 49.08 -29.44 98.14 -29.45 127.6 -58.88 166.83 -117.78 392.6 -117.77 363.13 -88.33 333.68 -78.5 304.27 -58.89 274.8 -39.27 235.54 -29.45 215.92 0 392.59 29.45 176.66 39.27 157.03 49.06 127.58 68.71 98.16 78.5 68.69 98.16 39.25 117.78 19.64 68.69 -19.64 78.53 -29.44 68.69 -49.06 78.52 -78.52 88.33 -98.14 78.51 -117.77 88.33 -137.41 88.33 -157.03 0 0zm-4014.13 -824.42l-78.52 -304.26 -107.95 -323.88 -127.6 -363.13 -157.03 -392.57 -88.33 -206.11 -78.52 -176.66 -68.7 -147.22 -68.69 -127.6 -58.89 -98.14 -58.88 -68.69 -49.08 -39.28 -39.25 -9.8 -88.33 9.8 -29.45 29.45 -19.63 29.44 -19.64 29.44 -39.25 29.45 -49.08 9.83 -68.7 9.8 -98.13 -19.63 -98.16 -49.06 -117.78 -78.52 -127.58 -107.97 -127.58 -117.77 -78.52 -107.95 -58.89 -88.33 -9.81 -88.33 0 -19.64 9.81 -29.44 19.64 -49.08 19.61 -49.06 39.27 -58.88 39.25 -68.72 39.25 -88.33 58.89 -88.33 58.89 -88.33 49.08 -78.5 39.25 -68.72 39.27 -58.89 29.45 -39.25 29.44 -29.44 29.44 -19.64 9.81 0 137.41 9.83 137.39 29.44 137.41 49.06 117.77 68.72 127.58 98.14 117.78 117.77 117.77 127.58 117.78 157.05 107.96 176.66 98.14 176.66 88.33 206.11 78.53 206.1 78.52 225.72 58.89 235.55 58.88 245.38 49.06 255.16 9.83 49.08 9.81 39.25 0 39.27 19.63 19.61 9.81 -19.61 9.81 -9.83 9.83 -29.44 19.61 -39.25 9.83 -49.08 29.44 -166.83 39.25 -186.5 39.25 -215.91 49.09 -225.74 58.88 -245.35 68.7 -265 78.52 -294.43 78.52 -304.24 98.14 -215.94 98.14 -176.66 98.16 -157.02 107.94 -127.58 98.16 -98.16 107.95 -78.5 107.97 -39.28 117.77 -9.81 107.97 19.64 117.77 49.06 117.78 98.16 107.94 137.39 88.33 127.6 68.72 117.78 29.44 98.13 19.61 98.14 -19.61 147.22 -49.08 186.49 -49.08 127.58 -49.06 78.52 -58.88 58.89 -58.89 19.61 -29.44 -19.61 -49.09 -39.27 -58.88 -58.89 -78.53 -98.14 -88.33 -88.33 -88.33 -68.69 -88.33 -39.28 -88.33 -9.8 -49.06 0 -49.08 29.44 -49.08 29.44 -49.05 58.89 -49.08 58.89 -39.25 88.33 -49.08 88.33 -49.08 117.77 -49.06 117.78 -39.27 147.22 -49.06 147.21 -39.28 176.67 -49.05 176.66 -39.28 206.1 -49.05 215.91 -39.28 225.74 -68.69 343.52 -78.52 304.24 -88.34 274.8 -107.94 245.38 88.33 9.81 88.33 29.44 98.14 39.25 98.14 49.08 107.96 58.89 107.97 68.69 127.58 88.33 117.78 98.16 127.58 98.14 107.96 98.14 88.34 98.16 78.52 88.33 58.89 88.33 49.05 88.33 39.28 78.5 19.61 78.52 -9.81 49.08 -19.63 88.33 -49.06 127.59 -58.89 147.21 -39.27 78.53 -29.44 68.69 -39.25 58.89 -19.64 49.08 -29.44 39.25 -19.62 29.44 -19.64 19.64 -19.63 9.81 -981.45 264.99 -137.41 58.88 -137.38 49.08 -127.61 58.89 -107.94 58.89 -98.16 58.89 -88.33 58.88 -78.5 68.7 -68.72 58.88 157.05 520.18 137.38 510.35 117.78 510.34 88.33 500.54 78.52 510.37 49.08 510.35 29.45 500.54 19.61 500.54 -9.81 294.44 -29.44 304.24 -39.25 294.43 -49.08 304.27 -29.44 98.14 -19.64 58.88 -19.61 49.08 -9.83 19.62 -19.62 -19.62 -9.83 -29.44 -9.8 -49.08 -9.81 -78.52 -9.83 -98.14 0 -431.85 -9.81 -294.43 -19.64 -314.05 -19.61 -323.88 -39.27 -343.52 -49.06 -353.32 -58.89 -372.96 -68.71 -382.76 -78.5 -402.38 -39.28 -196.3 -39.25 -186.47 -39.25 -176.66 -29.44 -166.85 -29.45 -157.03 -29.44 -147.22 -19.64 -127.6 -29.44 -127.58 -19.64 -107.97 -19.61 -107.94 -9.83 -88.33 -9.81 -78.53 -9.8 -68.69 -9.83 -58.89 0 -274.82 29.44 -176.66 29.44 -176.66 49.08 -147.22 68.7 -147.22 78.52 -127.58 88.33 -117.77 107.97 -98.14 68.69 -49.08 68.7 -39.25 88.33 -49.08 98.16 -39.25 107.94 -49.08 117.78 -39.25 137.41 -49.08 147.22 -49.08 -127.59 -107.95 -117.77 -78.52 -117.77 -39.25 -117.78 -19.64 -58.88 19.64 -68.72 49.06 -88.33 78.52 -98.14 107.97 -88.33 117.77 -68.69 78.5 -39.28 49.08 -29.44 19.64 -19.61 -19.64 -9.83 -39.25 -9.81 -68.72 9.81 -98.13 29.44 -245.36 49.08 -215.93 58.89 -196.28 58.88 -176.66 78.53 -137.41 88.33 -117.77 107.94 -88.33 107.97 -68.7 0 0zm2640.11 7135.14l-39.27 88.33 -39.25 58.89 -39.25 29.45 -29.45 19.63 -29.44 -19.63 -19.64 -49.08 9.81 -78.51 19.64 -107.96 9.8 -107.97 19.64 -137.39 0 -147.22 9.81 -166.85 -19.62 -274.8 -58.88 -274.82 -98.16 -284.61 -137.39 -274.82 -176.66 -284.6 -215.94 -274.82 -255.16 -274.8 -294.44 -274.8 -29.44 -39.28 -19.64 -49.05 9.81 -39.28 19.64 -49.05 235.55 -422.04 19.63 -29.45 49.06 0 29.44 29.45 294.44 235.55 255.18 264.99 206.11 274.82 176.66 304.24 137.41 323.88 98.14 343.52 58.88 372.93 19.64 382.77 -19.64 245.38 -29.44 235.54 -58.89 225.72 -68.69 225.74 0 0zm2384.93 196.3l-78.53 157.03 -88.33 157.02 -117.77 157.05 -127.58 157.02 -137.41 147.22 -166.86 157.03 -176.66 147.21 -186.47 147.22 -363.13 255.19 -333.71 215.91 -333.68 186.49 -304.24 157.02 -49.08 19.64 -88.33 39.25 -117.78 39.25 -166.85 68.72 -186.47 68.69 -235.55 88.33 -264.99 98.14 -304.24 107.97 -88.33 29.44 -78.53 29.44 -58.88 9.81 -39.25 9.83 -29.45 -9.83 0 -9.81 9.81 -29.44 39.25 -39.25 78.52 -58.89 98.14 -68.71 274.82 -157.03 304.24 -176.66 333.69 -206.1 363.15 -215.92 382.77 -245.37 422.01 -265 441.66 -284.6 471.09 -304.27 225.75 -186.47 196.27 -176.66 166.85 -157.02 137.42 -157.05 68.69 -88.33 68.69 -78.5 16.37 -16.37 -6.54 -13.07 -9.83 -49.08 -9.8 -68.7 0 -78.52 -9.81 -88.33 -29.44 -107.97 -29.45 -117.77 -49.08 -137.39 -49.08 -147.22 -58.89 -166.85 -68.69 -186.47 -78.52 -176.66 -68.7 -157.05 -58.88 -127.58 -58.89 -107.97 -49.08 -88.33 -49.06 -58.89 -39.27 -29.44 -29.45 -9.81 -78.5 9.81 -39.27 39.27 -19.61 29.45 -29.45 9.8 -39.27 9.81 -49.06 9.83 -78.52 -19.64 -78.52 -29.44 -98.14 -68.69 -107.97 -88.33 -88.33 -88.33 -68.69 -88.33 -49.08 -78.53 -9.81 -58.89 9.81 -49.08 39.27 -68.69 49.06 -107.97 88.33 -137.38 78.52 -137.42 68.69 -98.13 49.08 -49.08 29.45 -19.64 117.77 0 98.14 29.44 107.97 39.28 107.96 58.88 98.14 78.5 88.33 88.34 98.14 107.96 88.33 127.58 88.33 137.41 78.53 147.22 68.69 157.03 68.72 166.85 58.88 176.66 49.06 186.47 49.08 206.1 39.25 206.11 9.83 68.72 9.81 29.44 9.8 19.61 9.83 -19.61 9.81 -29.44 29.44 -68.72 19.64 -137.39 29.44 -147.22 39.26 -166.85 39.25 -186.47 49.08 -196.3 49.08 -215.91 58.88 -225.74 68.7 -245.35 78.52 -176.67 78.5 -147.21 78.53 -127.61 78.52 -98.13 88.33 -78.53 88.33 -58.89 78.5 -29.44 88.33 -9.81 98.16 9.81 88.33 49.08 98.14 78.53 88.33 107.94 68.69 98.16 49.08 98.14 29.45 78.52 9.81 78.5 0 0 -9.81 117.78 -49.08 157.04 -29.45 98.14 -39.25 68.69 -49.08 39.28 -49.05 19.61 -19.64 -19.61 -39.25 -29.45 -49.08 -49.08 -58.89 -78.52 -68.69 -78.5 -78.53 -49.08 -68.69 -29.44 -68.72 -9.81 -39.25 0 -39.25 19.61 -39.27 29.45 -39.25 39.27 -39.25 58.89 -39.27 58.88 -39.25 78.5 -29.45 88.34 -39.25 98.16 -39.27 107.94 -29.45 127.6 -39.25 137.39 -39.25 147.22 -29.44 157.05 -39.27 166.83 -29.45 186.49 -29.44 157.02 -39.25 147.22 -29.44 127.58 -29.45 127.61 -29.44 107.94 -39.25 98.16 -29.45 88.33 -39.27 68.7 -36.81 58.91 -2.44 9.78 -19.64 49.08 -29.44 58.89 -29.44 78.52 -29.45 78.5 -49.05 98.16 0 0zm-6546.3 4799.3l2002.16 -745.92 2031.61 -755.7 2061.04 -775.36 2100.32 -775.34 58.89 -19.64 49.06 -9.81 29.44 -9.8 19.64 9.8 9.81 9.81 0 29.44 -9.81 39.28 -19.64 49.05 -68.69 166.86 -58.89 117.77 -58.89 88.33 -39.25 49.08 -29.44 19.62 -49.08 19.63 -78.52 29.45 -107.95 49.08 -147.22 58.89 -166.85 58.88 -206.1 78.5 -225.75 88.33 -264.99 98.16 -284.6 117.78 -323.88 117.77 -353.32 127.58 -382.77 147.22 -412.21 157.03 -441.65 157.04 -471.1 176.66 -480.93 186.47 -451.46 166.86 -431.84 166.83 -402.38 147.22 -372.96 137.41 -343.52 137.41 -314.05 127.58 -294.43 107.97 -264.99 107.94 -235.55 98.16 -206.11 78.48 -186.49 78.52 -147.21 68.7 -127.58 58.88 -98.14 49.08 -68.72 39.25 39.27 -176.66 68.7 -176.66 68.69 -186.44 88.33 -186.47 0 0zm7262.75 225.72l-9.81 157.02 -29.44 157.03 -39.28 166.85 -49.05 176.66 -68.72 166.83 -88.33 186.49 -107.94 186.47 -117.78 196.3 -274.82 392.57 -314.05 363.13 -353.32 333.71 -382.77 294.44 -147.22 107.94 -107.96 68.72 -88.33 39.25 -39.25 19.63 -9.83 -19.63 9.83 -39.25 58.88 -68.72 78.5 -98.14 127.61 -137.41 157.02 -176.66 157.03 -176.66 137.41 -166.83 137.41 -157.05 117.77 -147.22 107.95 -137.39 98.16 -137.41 88.33 -127.58 78.5 -117.77 68.72 -107.97 58.88 -107.97 49.06 -88.33 39.27 -88.33 19.62 -88.33 19.63 -68.69 9.81 -68.7 -9.81 -107.96 -19.63 -98.14 -39.25 -78.52 -39.25 -58.89 -68.72 -58.89 -68.69 -29.44 -88.33 -29.45 -215.92 0 -117.77 29.45 -98.16 39.25 -107.95 58.89 -58.88 49.08 -49.08 29.44 -39.25 29.44 -29.45 9.81 -58.88 -39.25 9.8 -29.44 9.81 -58.89 9.83 -68.69 19.61 -98.17 58.89 -235.52 88.33 -206.11 98.16 -166.83 117.78 -147.21 127.58 -107.97 157.02 -78.53 166.86 -49.05 186.46 -9.83 157.05 9.83 137.39 39.25 107.97 58.88 98.13 98.14 68.72 117.78 49.06 137.41 29.44 166.85 19.64 196.28 0 0zm-11021.69 5829.79l-9.83 107.97 -19.61 107.97 -29.45 98.14 -49.08 98.13 -58.88 98.16 -78.53 88.33 -88.33 88.33 -107.94 88.33 -107.97 78.51 -117.75 68.71 -117.78 49.06 -117.77 49.08 -127.6 39.25 -137.39 19.64 -127.61 19.63 -147.21 9.81 -107.95 -19.64 -147.21 -29.44 -78.53 -19.61 -58.89 -9.83 -58.88 -9.81 -39.25 0 -147.22 9.81 -157.05 19.63 -147.22 49.08 -147.21 58.89 -147.22 88.33 -157.03 98.14 -147.21 117.77 -157.03 127.58 -893.13 893.14 -137.39 98.14 -127.61 78.52 -137.38 58.89 -137.41 49.06 -147.22 39.27 -107.97 29.44 -78.5 19.62 -39.27 9.83 -9.81 -9.83 9.81 -19.62 49.08 -29.44 78.52 -49.08 107.95 -68.7 127.6 -78.52 166.83 -107.97 196.3 -137.38 225.74 -176.67 127.58 -137.41 157.03 -166.85 186.49 -206.11 206.1 -245.35 157.03 -176.66 166.85 -157.03 166.83 -147.21 176.66 -137.41 196.3 -127.59 186.47 -107.96 176.66 -68.7 176.66 -39.27 -9.81 0 19.64 0 29.44 9.83 372.94 0 549.62 -529.98 166.85 -137.41 157.03 -98.14 78.5 -39.28 68.69 -19.61 58.89 -19.64 147.22 0 68.72 19.64 68.69 29.44 49.08 39.25 39.25 49.08 29.44 58.89 9.81 78.5 9.83 88.33 0 0zm-196.3 166.86l-49.08 -68.7 -68.69 -49.08 -98.14 -29.44 -117.77 -9.81 -78.5 0 -78.53 29.45 -88.33 39.25 -98.14 58.88 -107.96 78.53 -117.78 88.33 -127.58 117.77 -127.6 117.78 127.6 19.61 147.22 -9.81 157.02 -29.44 157.03 -49.08 166.83 -58.89 147.22 -68.69 117.77 -58.89 78.53 -58.89 58.88 -58.88 0 0zm-5309.64 -1403.49l-9.81 127.61 -19.63 137.39 -29.45 137.41 -49.05 137.41 -58.89 147.22 -68.72 157.02 -88.33 157.02 -98.14 157.05 -235.54 323.88 -255.19 304.24 -294.44 274.8 -323.87 255.19 -117.78 88.33 -98.14 58.88 -68.69 29.45 -29.44 19.64 -9.83 -9.83 9.83 -39.26 39.25 -58.88 78.52 -88.33 98.14 -107.97 255.18 -294.44 235.55 -264.99 186.47 -235.55 157.02 -215.91 127.61 -196.3 78.5 -166.83 58.89 -137.41 19.63 -117.77 -9.8 -88.33 -19.64 -78.53 -29.44 -68.69 -39.25 -49.08 -49.08 -49.06 -58.89 -29.44 -68.7 -19.64 -186.49 0 -88.33 19.64 -88.33 39.25 -78.5 49.08 -58.89 29.44 -39.27 29.45 -39.25 19.61 -19.64 9.83 -49.05 -29.44 9.8 -29.45 9.81 -49.08 9.83 -58.88 9.81 -78.53 58.88 -196.27 68.7 -166.86 78.52 -147.21 98.14 -117.78 107.97 -88.33 127.58 -68.69 147.21 -39.28 157.05 -9.8 127.58 9.8 107.97 29.45 98.14 49.08 78.52 78.52 58.89 98.14 39.25 117.77 29.44 137.41 9.81 166.83 0 0zm-6683.68 -392.57l1521.25 -569.23 1560.51 -579.07 1589.95 -588.87 1629.2 -598.67 49.08 -19.64 49.08 -9.81 29.45 -9.83 19.61 9.83 9.83 9.81 0 29.44 -9.83 39.25 -19.61 49.08 -58.89 166.86 -68.72 117.77 -49.05 88.33 -49.08 58.89 -706.65 255.16 -736.09 284.63 -755.72 284.63 -794.98 314.05 -824.42 323.88 -853.86 333.71 -883.3 353.32 -912.75 372.93 39.27 -176.66 68.69 -166.83 68.7 -186.49 88.33 -186.47 0 0zm441.65 -2728.44l29.44 -58.89 29.45 -39.25 29.44 -9.8 9.83 19.61 0 107.97 -39.27 186.46 -39.25 186.5 -49.08 166.83 -49.06 157.04 -49.08 137.39 -49.08 127.61 -49.06 117.77 -58.88 107.94 -68.72 98.17 -58.89 78.5 -68.69 68.71 -68.7 49.06 -68.71 49.08 -78.5 29.44 -78.53 19.64 -78.52 9.81 -166.83 -19.64 -137.41 -58.89 -127.58 -88.33 -98.17 -127.58 -68.69 -166.85 -58.89 -196.28 -29.44 -235.55 -9.81 -274.82 9.81 -363.13 39.25 -363.13 58.89 -372.95 98.16 -372.96 117.77 -372.92 137.39 -382.76 166.85 -392.6 196.3 -392.57 49.06 -88.33 49.08 -78.53 29.44 -68.69 39.25 -58.89 29.45 -39.25 19.63 -29.44 19.64 -29.44 9.81 0 9.8 9.8 0 49.08 -29.44 98.14 -29.44 127.58 -58.89 166.86 -117.77 392.57 -117.78 363.15 -88.33 333.69 -78.5 304.22 -58.89 274.82 -39.27 235.55 -29.44 215.91 0 392.57 29.44 176.66 39.27 157.05 49.06 127.58 68.72 98.14 78.5 68.71 98.16 39.25 117.77 19.64 68.7 -19.64 78.52 -29.44 68.69 -49.08 78.53 -78.5 88.33 -98.16 78.5 -117.77 88.33 -137.39 88.33 -157.05 0 0zm363.15 -9147.09l29.45 68.7 9.8 88.33 -19.63 166.85 -39.25 186.47 -58.89 186.47 -88.33 206.1 -49.08 98.16 -49.06 88.33 -49.08 68.7 -49.08 58.89 -49.06 49.08 -49.08 29.44 -49.08 19.61 -49.05 9.83 19.61 0 0 0 -9.81 -9.83 -19.63 0 -29.45 -9.8 -39.25 -9.81 -58.88 -9.83 -58.89 -9.81 -78.53 -9.8 -88.33 -19.64 -88.33 -9.81 -107.94 -19.63 -117.78 -19.64 -137.41 -19.61 -137.41 -19.64 -147.21 -29.44 -117.78 196.29 -117.77 176.66 -107.95 176.67 -117.77 157.02 -117.78 147.22 -127.6 127.58 -117.77 127.6 -117.78 107.95 -117.77 88.33 -127.58 98.16 -137.41 88.33 -147.22 98.14 -166.83 98.13 -176.66 98.16 -186.49 98.14 -206.11 98.14 -98.14 49.08 -68.69 58.89 -39.27 58.88 -19.62 49.08 9.81 49.06 29.44 39.27 49.08 29.45 68.7 19.61 137.41 39.27 147.22 19.62 176.66 19.63 176.66 9.81 422.01 0 235.55 -19.61 245.36 -19.64 127.6 -19.64 166.83 -29.44 206.11 -39.25 245.38 -49.08 274.79 -58.89 323.88 -78.5 353.33 -78.52 392.57 -88.33 98.16 -19.64 58.89 -19.61 39.25 0 19.63 9.8 -9.83 9.81 -29.44 29.45 -49.06 39.27 -68.72 49.06 -88.33 68.71 -107.94 78.5 -127.6 88.33 -157.03 107.97 -68.69 49.08 -98.16 49.06 -98.14 58.89 -117.77 49.08 -127.59 58.88 -147.21 58.89 -157.05 58.89 -176.66 68.69 -235.55 78.53 -235.55 68.69 -225.72 68.72 -225.74 49.05 -215.91 29.45 -206.1 29.44 -206.11 19.64 -196.3 9.8 -225.74 -9.8 -186.47 -29.45 -166.85 -49.08 -127.58 -68.69 -107.97 -88.33 -68.69 -107.97 -49.08 -117.77 -9.81 -147.22 0 -147.22 29.44 -147.22 39.25 -147.21 58.89 -137.39 78.52 -137.41 98.14 -127.58 107.97 -117.78 127.58 -117.77 902.94 -628.15 294.44 -225.71 264.99 -225.75 225.74 -235.54 186.47 -235.55 -235.55 -49.08 -206.1 -68.7 -176.66 -68.69 -137.42 -88.33 -107.94 -107.97 -78.52 -117.77 -49.08 -127.58 -9.81 -137.41 9.81 -225.75 49.08 -235.54 88.33 -255.17 117.77 -264.99 -39.25 -147.21 -19.64 -137.42 -9.8 -127.58 0 -117.77 19.61 -107.97 29.44 -88.33 39.28 -88.33 58.89 -68.69 107.94 -88.33 117.77 -58.89 117.78 -39.27 127.6 -9.81 137.39 9.81 147.22 29.44 157.04 58.89 166.84 78.52 284.62 166.85 255.19 176.67 235.55 186.46 206.1 186.47 186.47 206.11 157.02 215.93 137.42 215.91 107.96 225.74 0 0zm-431.84 392.58l-68.7 -127.58 -78.52 -127.61 -98.14 -117.77 -98.16 -98.14 -117.77 -98.14 -127.58 -88.33 -137.41 -88.33 -157.03 -68.72 0 274.83 -19.64 235.54 -39.25 196.28 -39.25 166.85 39.25 9.81 58.89 9.83 78.52 19.61 107.95 9.83 127.6 19.62 157.03 19.63 176.66 29.45 196.3 19.63 39.25 9.81 29.44 -19.64 9.81 -19.61 0 -49.08 -9.81 -49.08 -29.44 -68.69 0 0zm-1315.16 0l19.64 -147.22 9.81 -157.03 -19.62 -157.04 -29.44 -157.03 -19.64 -78.52 -29.44 -78.5 -29.44 -58.89 -39.25 -49.08 -39.28 -39.25 -39.25 -29.44 -49.08 -19.64 -49.05 0 -78.53 9.81 -78.52 39.27 -98.14 78.5 -107.97 98.16 -98.13 107.95 -78.53 88.33 -39.25 88.33 -9.8 58.88 9.8 68.72 39.25 68.69 78.53 49.09 98.13 58.88 127.61 49.06 157.02 39.27 186.47 39.25 206.1 29.45 0 0zm3817.86 2541.95l-39.25 88.33 -39.28 58.89 -39.25 29.44 -29.44 19.64 -29.44 -19.64 -19.64 -49.06 9.83 -78.52 19.61 -107.97 9.83 -107.94 19.62 -137.41 0 -147.22 9.83 -166.86 -19.64 -274.8 -58.89 -274.79 -98.13 -284.63 -137.42 -274.8 -176.66 -284.63 -215.91 -274.8 -255.18 -274.82 -294.44 -274.8 -29.44 -39.25 -19.64 -49.08 9.83 -39.25 19.61 -49.08 235.55 -422.02 19.64 -29.44 49.08 0 29.44 29.44 294.44 235.55 255.16 264.99 206.11 274.8 176.66 304.24 137.41 323.88 98.13 343.52 58.89 372.96 19.64 382.76 -19.64 245.36 -29.44 235.55 -58.89 225.74 -68.69 225.72 0 0zm2541.95 -12003.13l-9.81 -49.08 -29.44 -49.09 -49.08 -68.69 -78.5 -58.89 -88.33 -78.52 -117.78 -78.5 -137.41 -78.52 -157.02 -98.14 -88.33 196.27 -58.89 176.66 -39.27 176.67 -9.81 157.04 9.81 88.33 29.44 58.89 58.89 39.25 78.52 19.64 88.33 -9.83 98.14 -19.62 98.16 -39.27 107.94 -49.06 98.16 -58.88 78.5 -58.89 68.72 -58.89 49.06 -58.88 0 0zm-461.27 -1697.92l49.06 -68.7 49.08 -49.08 49.08 -29.44 58.89 -9.81 49.05 9.81 19.64 49.08 -9.81 49.06 -127.6 294.43 -107.95 314.07 157.03 127.59 127.58 117.77 117.77 127.6 88.33 117.78 68.72 127.58 39.25 117.77 29.45 127.58 0 117.78 -19.64 127.6 -9.81 117.78 -19.63 98.13 -9.81 88.33 -19.64 78.53 -19.61 68.69 -29.45 49.08 -19.63 39.25 -78.53 98.14 -78.5 78.52 -88.33 68.7 -88.33 49.08 -88.33 49.08 -98.16 29.44 -107.94 19.62 -107.97 9.83 -98.14 -9.83 -78.52 -29.45 -78.53 -39.25 -58.88 -49.08 -39.25 -78.5 -39.25 -88.33 -19.64 -98.16 0 -245.36 19.64 -127.58 98.13 -490.73 137.42 -461.29 176.66 -451.46 206.1 -441.65 0 0zm3729.5 -667.4l107.97 0 107.96 29.45 107.95 39.27 98.16 58.89 98.14 78.5 98.13 88.33 88.33 107.97 98.17 127.58 78.5 137.41 78.52 147.22 78.52 157.02 68.7 166.85 58.88 176.67 49.08 186.46 49.06 206.11 39.28 206.1 9.8 68.72 0 29.44 19.64 19.62 9.81 -19.62 9.8 -29.44 29.45 -68.72 19.63 -137.39 29.45 -147.21 29.44 -166.86 39.25 -186.47 49.08 -196.29 58.89 -215.91 58.88 -225.75 58.89 -245.35 78.53 -176.66 78.5 -147.22 78.52 -127.6 88.33 -98.14 78.52 -78.53 88.33 -58.88 88.34 -29.45 88.33 -9.8 88.33 9.8 98.13 49.08 88.33 78.53 88.34 107.94 78.52 98.16 49.08 98.14 29.42 78.52 9.81 78.5 -19.64 117.78 -39.23 157.05 -39.25 98.13 -39.27 68.7 -39.25 39.27 -49.08 19.61 -29.45 -19.61 -39.25 -29.44 -49.08 -49.08 -58.88 -78.53 -68.7 -78.5 -68.71 -49.08 -68.7 -29.44 -68.69 -9.81 -39.28 0 -39.25 19.62 -39.25 29.44 -39.27 39.27 -39.25 58.89 -39.25 58.89 -39.27 78.5 -39.25 88.33 -29.45 98.16 -39.25 107.94 -39.27 127.61 -29.44 137.38 -39.25 147.22 -39.26 157.05 -29.44 166.83 -39.27 186.49 -29.45 157.03 -29.44 147.21 -29.44 127.59 -29.45 127.6 -39.25 107.94 -29.44 98.16 -39.25 78.51 -39.27 78.52 -49.06 78.52 -39.27 58.89 -49.06 29.44 -29.45 19.62 -29.44 -19.62 -19.64 -29.44 -19.63 -49.08 0 -147.22 -19.62 -88.33 -19.63 -107.97 -39.25 -117.77 -39.28 -137.39 -49.05 -147.22 -68.72 -166.85 -68.69 -186.47 -68.7 -176.66 -68.72 -157.05 -68.69 -127.58 -49.08 -107.97 -58.89 -88.33 -39.25 -58.88 -39.25 -29.45 -39.27 -9.8 -68.69 9.8 -39.25 39.28 -19.64 29.44 -29.45 9.81 -39.25 9.8 -58.88 9.83 -68.72 -19.63 -88.33 -29.45 -88.33 -68.69 -107.94 -88.33 -98.17 -88.33 -68.69 -88.33 -39.25 -78.53 -9.83 -58.88 9.83 -49.08 29.44 -68.7 58.89 -107.96 78.5 -137.39 88.33 -137.41 68.72 -98.14 49.06 -49.08 29.44 -19.64 0 0z"/>
  <path class="fil2" d="M22957.78 28646.11l-19.63 -39.25 19.63 -58.89 510.35 -1050.16 19.64 -39.25 29.44 -29.44 19.61 -19.64 58.89 0 49.08 19.64 58.89 39.25 78.52 39.25 88.33 58.88 117.78 68.72 127.58 88.33 137.41 98.14 147.22 98.14 117.77 88.33 107.94 78.52 88.33 58.89 58.89 58.89 49.08 49.08 29.44 29.44 9.81 19.61 -9.81 78.53 -19.63 98.13 -49.06 117.78 -58.89 127.6 -68.71 147.22 -98.14 176.66 -107.97 186.47 -117.77 206.1 -39.25 39.25 -29.45 29.45 -39.25 0 -29.44 -9.81 -608.51 -441.65 -628.12 -412.21 0 0zm569.24 -15065.26l402.4 -844.03 29.44 -39.28 29.45 -29.44 19.61 -19.61 58.89 0 49.08 19.61 58.88 39.27 78.53 39.25 88.33 58.89 117.77 68.69 117.78 88.33 147.21 98.17 147.22 98.13 117.78 88.33 107.94 78.53 88.33 68.69 58.89 49.08 49.08 49.06 29.44 29.44 9.81 29.45 -9.81 78.52 -19.64 88.33 -49.05 117.77 -58.89 137.41 -68.72 147.22 -98.13 166.83 -107.97 186.49 -127.58 206.11 -29.45 49.06 -29.44 19.63 -39.25 9.81 -29.44 -19.61 -274.82 -196.3 -294.44 -206.11 -304.24 -206.1 -323.88 -215.91 -107.97 245.35 -107.94 225.74 -107.97 206.11 -107.97 186.47 -39.25 39.25 -29.44 29.44 -39.25 0 -29.44 -9.81 -608.51 -451.46 -628.12 -412.21 -19.64 -29.44 19.64 -68.72 510.34 -1040.33 19.64 -49.08 29.44 -29.44 19.62 -19.61 58.88 0 39.28 19.61 49.06 29.44 68.71 39.28 78.5 49.05 88.33 58.89 107.97 68.72 127.58 78.5 117.78 78.52 107.96 78.53 107.97 68.69 88.33 68.69 78.5 58.89 68.72 58.89 49.06 49.08 49.08 39.25 0 0zm-12268.13 -5869.07l-19.63 166.85 -49.06 166.83 -78.52 147.22 -107.97 127.61 -137.39 117.77 -147.22 78.5 -157.04 49.08 -176.67 19.64 -176.66 -19.64 -157.02 -49.08 -147.22 -78.5 -137.41 -117.77 -107.94 -127.61 -78.53 -147.22 -49.08 -166.83 -9.81 -166.85 9.81 -176.66 49.08 -157.03 78.53 -147.21 107.94 -137.42 137.41 -107.96 147.22 -78.5 157.02 -49.08 176.66 -9.81 176.67 9.81 157.04 49.08 147.22 78.5 137.39 107.96 107.97 137.42 78.52 147.21 49.06 157.03 19.63 176.66 0 0zm0 2159.18l-19.63 166.86 -49.06 157.02 -78.52 147.22 -107.97 137.41 -137.39 107.97 -147.22 78.5 -157.04 49.08 -176.67 19.64 -176.66 -19.64 -157.02 -49.08 -147.22 -78.5 -137.41 -107.97 -107.94 -137.41 -78.53 -147.22 -49.08 -157.02 -9.81 -166.86 9.81 -176.66 49.08 -157.02 78.53 -147.22 107.94 -137.41 137.41 -117.77 147.22 -78.51 157.02 -49.08 176.66 -9.8 176.67 9.8 157.04 49.08 147.22 78.51 137.39 117.77 107.97 137.41 78.52 147.22 49.06 157.02 19.63 176.66 0 0zm5712.05 3179.91l-9.81 166.85 -29.44 186.47 -39.28 206.1 -58.88 235.55 -68.7 225.74 -78.52 196.3 -68.69 157.02 -78.53 127.59 -88.33 117.77 -98.14 127.6 -107.96 117.78 -127.58 117.77 -147.22 117.78 -147.22 117.77 -176.66 127.58 -186.47 117.78 -196.3 117.77 -196.29 107.97 -196.28 98.13 -176.66 68.7 -176.66 58.88 -166.86 39.28 -157.02 29.44 -147.22 9.81 -117.77 -9.81 -107.97 -19.63 -98.14 -19.64 -88.33 -39.25 -88.33 -49.08 -78.52 -58.89 -68.7 -78.5 -58.88 -78.52 -58.89 -88.33 -49.08 -107.97 -39.25 -107.95 -29.44 -127.6 -29.45 -137.39 -19.63 -147.22 -9.81 -157.04 0 -412.21 19.61 -235.55 19.64 -235.55 39.25 -225.72 49.08 -235.55 58.89 -225.74 68.69 -215.91 78.52 -215.93 78.53 -196.28 98.14 -215.93 107.96 -225.72 127.58 -245.38 147.22 -255.16 157.03 -274.82 176.66 -294.44 186.49 -304.24 -157.05 -166.85 -157.02 -166.84 -137.41 -157.04 -137.39 -157.03 -333.71 402.4 -343.49 363.13 -353.33 343.52 -353.32 304.24 -372.96 274.8 -372.96 245.38 -382.76 215.91 -392.58 186.47 -147.21 68.71 -117.78 39.26 -78.52 29.44 -39.25 9.81 -29.44 -9.81 0 -29.44 19.63 -19.64 29.45 -39.25 49.05 -39.25 58.89 -58.89 68.72 -68.72 88.33 -68.69 98.13 -88.33 176.67 -157.03 166.85 -137.41 147.22 -137.41 137.39 -117.77 117.77 -98.14 107.97 -98.14 88.33 -78.52 78.52 -68.69 422.02 -392.6 392.57 -402.38 372.96 -392.59 343.52 -392.58 -107.97 -147.22 -127.58 -186.46 -147.22 -225.74 -176.66 -255.19 -49.08 -58.89 -88.33 -88.33 -117.78 -117.77 -137.41 -147.22 -78.5 -88.33 -58.89 -98.14 -29.44 -107.96 -9.83 -107.95 0 -176.66 19.64 -196.3 29.44 -215.91 49.08 -215.93 19.62 -107.95 19.63 -88.33 19.64 -78.52 19.61 -68.7 19.64 -49.08 19.64 -39.25 19.61 -19.63 19.64 -9.81 29.44 9.81 49.08 19.63 68.69 39.25 88.33 39.25 98.14 58.89 117.78 78.52 137.41 88.33 147.21 98.14 304.25 196.3 274.82 186.47 225.72 157.05 186.49 137.38 68.69 58.89 58.89 58.89 29.44 29.44 19.64 29.44 0 9.83 -19.64 29.45 -49.08 9.81 -88.33 9.8 -235.55 0 -107.94 9.83 -157.05 0 -58.89 9.81 -39.25 9.81 -19.63 9.83 -9.81 9.8 0 29.45 29.44 39.25 39.25 49.08 49.08 68.69 68.7 78.52 78.52 88.33 98.14 107.97 117.77 117.78 147.22 -245.38 176.66 -255.16 186.49 -274.83 196.28 -284.6 225.74 -304.27 225.74 -323.88 255.16 -333.68 264.99 -363.13 245.38 -264.99 225.72 -245.38 206.11 -196.27 196.29 -166.86 166.86 -127.58 157.02 -88.33 137.41 -58.89 117.78 -9.83 58.89 0 58.88 29.45 49.06 29.44 29.44 49.08 29.45 68.69 29.44 78.53 9.83 98.13 0 235.55 -9.83 137.41 -29.44 147.22 -29.45 166.86 -29.44 166.83 -49.06 186.49 -58.88 186.47 -58.89 206.1 -127.61 363.13 -137.38 333.71 -127.61 294.43 -137.39 255.17 -107.96 176.66 -117.78 186.49 -127.58 206.1 -147.22 215.91 -147.21 235.55 -166.86 255.19 -176.66 264.99 -196.3 274.8 196.3 225.74 176.66 225.72 157.03 206.1 137.41 206.11 127.58 206.1 107.97 196.3 98.13 186.47 78.53 176.66 68.69 274.82 58.89 304.24 29.44 343.52 19.64 372.94 0 0zm-343.52 -6163.51l-78.5 58.89 -88.33 68.69 -98.16 78.52 -98.14 88.33 -98.13 107.97 -117.78 117.78 -107.97 117.77 -127.58 147.22 -127.6 147.22 -127.58 157.02 -137.41 176.66 -147.22 186.47 -147.22 186.49 -157.02 206.11 -157.03 225.71 -166.85 225.75 176.66 157.02 157.02 137.41 137.42 107.97 127.58 98.14 58.88 -68.7 78.53 -107.97 98.13 -147.21 117.78 -176.66 147.22 -215.92 157.04 -245.37 186.47 -284.61 206.11 -323.88 98.13 -157.05 88.34 -147.21 88.33 -137.39 68.71 -127.61 68.7 -107.94 49.08 -107.97 49.05 -98.13 39.28 -88.34 29.44 -68.71 19.61 -68.7 9.83 -58.88 0 -49.08 -9.83 -29.45 -9.8 -29.44 -29.45 -9.81 -29.44 -9.8 -78.52 19.61 -117.78 49.08 0 0zm-107.94 6163.51l-127.61 -225.72 -137.38 -215.94 -157.05 -225.72 -176.66 -225.74 -196.28 -215.91 -206.1 -225.74 -225.74 -215.91 -245.36 -225.74 -88.33 107.96 -98.16 117.78 -107.94 137.39 -107.97 157.04 -117.77 176.66 -117.78 186.47 -137.41 215.91 -137.39 225.75 -137.41 255.18 -127.58 225.72 -98.16 206.1 -88.33 176.66 -68.69 166.86 -49.08 137.41 -29.45 117.77 0 88.33 9.83 107.95 29.45 98.16 58.88 78.5 68.7 68.72 98.13 49.05 127.61 39.28 137.39 19.61 166.85 9.83 166.85 -19.64 186.47 -39.25 215.91 -58.88 235.55 -98.16 343.52 -166.83 333.68 -196.3 314.08 -235.55 294.43 -255.19 98.14 -107.94 68.71 -88.33 29.45 -68.72 0 -58.88zm8833.04 6614.98l-19.62 -78.52 -39.27 -88.33 -68.7 -98.14 -98.13 -117.77 -117.78 -127.58 -157.05 -137.41 -176.66 -147.22 -206.1 -157.03 -255.16 -186.49 -264.99 -166.83 -255.19 -137.41 -255.18 -107.97 -255.17 -88.33 -255.18 -68.69 -255.19 -29.45 -255.16 -19.63 -264.99 19.63 -255.19 39.26 -255.18 68.71 -264.99 88.33 -255.16 127.58 -255.17 147.22 -255.18 176.66 -255.19 196.3 -255.16 235.55 -255.18 255.16 -255.19 284.63 -255.16 304.24 -255.18 333.71 -255.19 372.94 -255.16 382.76 -255.19 422.04 412.21 117.78 392.58 78.5 382.76 49.08 372.96 19.63 314.07 -9.83 314.05 -19.61 323.88 -39.27 333.69 -49.06 333.68 -58.89 333.71 -78.52 343.49 -98.14 343.52 -107.97 539.79 -186.46 520.18 -215.94 490.73 -235.55 471.1 -255.16 196.27 -107.97 157.05 -98.13 137.39 -98.16 117.77 -78.51 88.33 -68.71 58.89 -68.7 39.27 -49.08 19.62 -39.25 0 0zm-6173.32 -3935.62l-333.68 284.63 -353.32 274.79 -392.6 284.63 -431.82 284.63 -451.49 294.44 -490.71 304.24 -510.37 294.43 -549.59 304.25 -245.38 137.41 -225.72 117.77 -215.94 117.78 -206.1 107.96 -186.47 98.14 -176.66 88.33 -166.85 78.52 -147.22 68.7 -137.39 68.69 -127.6 49.08 -107.95 49.08 -98.16 39.25 -88.33 29.45 -68.69 19.63 -58.89 19.62 -68.69 0 -29.45 9.83 -58.88 9.8 -68.72 9.81 -78.5 19.64 -107.97 29.44 -117.77 29.44 -137.41 29.45 -147.22 39.25 -166.83 39.27 -186.49 39.25 -206.11 49.08 -225.72 58.89 -214.56 44.7 8.46 33.8 19.61 49.08 9.83 58.89 9.81 68.69 9.81 78.52 0 431.85 39.27 245.36 78.5 215.91 98.16 166.85 137.39 137.41 78.52 58.89 88.33 49.06 98.14 39.27 117.77 39.25 137.41 19.64 137.42 19.61 157.02 9.83 166.85 9.81 255.19 -19.64 264.99 -39.25 255.16 -58.89 265 -98.13 255.18 -117.78 255.19 -147.22 255.16 -176.66 255.18 -196.29 1128.66 -1128.67 58.89 -39.27 49.08 -29.44 39.25 -19.62 39.27 -9.83 29.45 9.83 29.44 19.62 19.61 39.27 19.64 49.06 9.81 68.71 9.83 78.51 9.8 98.16 0 107.94 19.64 176.66 49.06 176.66 88.33 176.66 127.6 186.5 98.14 127.58 107.97 117.77 117.77 107.97 137.39 98.13 137.41 107.97 147.22 88.33 166.85 88.33 176.66 78.5 186.47 -284.6 176.66 -284.63 166.86 -264.99 157.02 -245.36 157.03 -245.37 147.21 -215.92 137.42 -215.91 127.58 -196.3 127.6 -176.66 107.94 -176.66 107.97 -147.22 107.97 -147.21 88.33 -127.58 88.33 -107.97 78.5 -98.14 68.72 -88.33 186.47 -225.74 186.46 -206.11 186.5 -186.46 186.46 -186.5 186.47 -157.02 176.69 -157.02 186.44 -127.61 186.47 -127.58 176.66 -107.97 186.49 -88.33 186.47 -78.5 176.66 -68.71 176.66 -49.06 186.47 -39.28 176.66 -19.61 176.66 0 314.07 9.81 294.44 49.08 294.43 78.5 284.63 117.77 284.61 147.22 274.82 176.66 264.99 206.11 255.16 245.37 196.3 206.11 176.66 206.1 147.22 206.11 117.77 186.47 98.14 186.46 58.89 176.67 39.27 176.66 19.62 157.04 -9.81 68.7 -9.81 78.52 -19.63 98.14 -19.64 107.97 -39.25 127.58 -39.25 137.41 -49.08 157.02 -58.89 166.86 -68.69 186.47 -68.72 166.85 -68.69 157.02 -58.89 137.42 -58.89 127.58 -68.69 107.96 -58.89 88.33 -58.89 78.51 -137.41 157.04 -166.85 166.83 -196.28 157.05 -215.93 166.83 -235.55 166.86 -264.99 166.85 -284.61 166.83 -314.07 166.83 -471.09 235.55 -480.91 206.11 -471.09 166.85 -480.93 137.39 -480.88 107.97 -490.73 78.52 -490.74 49.06 -490.71 9.83 -186.49 0 -206.1 -19.64 -206.11 -39.25 -225.72 -39.27 -225.74 -58.89 -245.35 -78.5 -255.19 -78.52 -255.18 -98.14 0 0 -88.33 235.55 -68.7 225.71 -39.25 225.75 -9.83 206.1 9.83 196.3 39.25 186.47 49.08 166.85 78.5 157.03 98.16 147.21 127.58 137.41 137.42 117.78 166.83 107.94 186.49 98.16 206.1 78.5 235.55 68.72 255.16 58.89 274.82 49.06 294.44 29.44 323.88 19.64 687.01 0 343.51 -29.45 343.49 -39.25 353.33 -49.08 353.32 -68.69 353.32 -88.33 353.32 -98.16 353.33 -117.78 2571.39 -1030.52 264.99 -107.95 264.99 -107.96 245.36 -98.14 235.55 -88.33 225.74 -78.53 215.91 -78.52 196.3 -68.69 186.47 -58.89 166.85 -58.89 166.86 -39.25 147.21 -39.27 137.39 -39.25 117.77 -19.64 117.78 -19.61 98.16 -9.83 88.33 -9.81 235.55 19.64 206.1 29.44 186.47 58.89 137.41 88.33 117.78 107.94 78.5 127.61 49.08 157.02 19.63 176.66 -9.83 147.22 -19.61 147.22 -29.44 147.22 -29.45 137.41 -49.08 147.22 -68.69 147.21 -68.72 137.39 -78.5 147.22 -588.87 775.36 -49.08 58.89 -68.69 88.33 -98.16 117.77 -107.95 137.39 -147.22 176.66 -157.04 186.49 -186.47 225.72 -206.11 245.38 -157.02 196.27 -147.22 176.66 -137.41 176.67 -117.77 157.04 -107.97 157.03 -88.33 137.41 -88.33 127.58 -68.7 127.58 -98.13 186.49 -88.33 157.03 -88.33 137.41 -68.72 117.77 -58.89 88.33 -39.25 58.89 -39.25 39.25 -29.44 9.81 -19.64 -19.62 0 -78.52 9.81 -58.89 9.83 -68.69 19.61 -88.33 29.44 -98.16 29.45 -117.78 39.27 -127.58 39.25 -137.41 58.89 -186.47 68.69 -176.66 78.53 -186.47 98.13 -196.29 98.16 -196.3 117.78 -196.28 117.77 -206.1 137.39 -206.11 147.22 -206.1 157.05 -215.94 166.83 -215.91 186.49 -225.74 186.47 -225.72 206.1 -225.74 206.11 -235.55 225.74 -245.35 -98.16 -78.53 -127.58 -58.88 -147.22 -29.45 -176.66 -9.8 -196.3 9.8 -215.91 29.45 -255.19 58.88 -284.6 68.7 -314.08 98.16 -343.51 127.58 -372.94 137.41 -402.4 166.83 0 -9.81 -441.65 186.47 -402.41 176.66 -372.93 147.22 -333.71 137.41 -304.24 127.58 -264.99 107.97 -235.55 88.33 -206.11 68.7 -451.46 157.04 -422.04 127.58 -412.21 107.97 -382.76 98.14 -363.13 68.69 -343.49 49.08 -323.88 29.45 -294.44 9.8 -382.76 -9.8 -353.33 -29.45 -333.68 -49.08 -304.27 -78.5 -274.79 -88.33 -265 -117.77 -225.74 -137.41 -206.1 -157.03 -186.47 -176.66 -157.03 -196.3 -137.41 -225.74 -107.96 -235.55 -88.33 -264.99 -58.89 -284.6 -39.25 -304.27 -9.81 -323.88 19.62 -382.76 49.08 -392.58 88.33 -392.57 127.58 -392.6 -284.61 -176.66 -245.38 -186.47 -215.91 -215.88 -186.47 -235.55 -157.04 -264.99 -127.58 -274.83 -88.34 -304.24 -58.88 -323.88 -166.86 245.36 -157.02 235.55 -157.03 206.1 -147.21 196.3 -147.22 166.85 -137.41 157.03 -127.58 147.22 -127.61 117.77 -206.1 176.64 -215.91 147.22 -215.91 127.58 -215.94 107.96 -225.72 78.53 -225.74 58.89 -235.55 29.44 -235.55 19.61 -294.43 -19.61 -274.82 -49.08 -255.16 -78.53 -215.94 -107.94 -196.27 -137.41 -166.86 -176.66 -137.41 -206.08 -117.77 -235.55 -58.89 -186.47 -49.06 -215.93 -29.44 -245.36 0 -431.85 19.61 -186.46 19.64 -215.91 39.25 -225.75 19.64 -157.02 29.44 -137.41 29.44 -117.78 29.45 -88.33 30.81 -61.62 -79.89 22.37 -274.8 58.89 -284.63 68.69 -274.8 68.7 -264.99 68.71 -245.36 58.89 -235.54 49.06 -225.75 49.08 -206.1 49.08 -186.47 49.06 -176.66 39.27 -166.85 39.25 -157.03 29.44 -137.41 29.45 -117.77 19.63 -117.78 29.45 -88.33 9.8 -88.33 19.64 -147.22 19.62 -127.58 19.63 -117.77 19.64 -98.16 9.81 -88.33 9.8 -68.7 9.83 -58.88 0 -39.25 9.81 -58.89 -9.81 -19.64 -19.63 9.81 -19.64 39.27 -29.44 68.7 -39.26 88.33 -49.08 127.58 -58.88 147.22 -78.5 166.85 -78.53 206.11 -98.13 49.08 -19.64 78.5 -39.25 107.96 -39.27 117.78 -58.89 147.22 -58.89 176.66 -68.69 186.46 -88.33 215.94 -88.33 245.35 -107.97 255.19 -107.95 284.6 -117.77 314.08 -137.41 333.68 -137.41 353.32 -157.03 372.96 -157.02 402.41 -166.85 569.23 -245.36 539.79 -235.55 520.18 -235.55 490.73 -225.74 471.1 -225.74 441.65 -225.72 422.02 -215.93 392.57 -206.11 471.1 -255.16 441.65 -255.18 431.84 -255.19 402.41 -255.16 372.93 -255.19 363.16 -255.18 333.68 -245.36 314.07 -255.18 235.55 -196.28 215.91 -186.49 186.47 -186.47 166.86 -166.85 137.41 -157.02 117.77 -147.22 88.33 -147.22 58.89 -127.58 -9.83 -333.71 -39.25 -343.49 -58.89 -353.32 -78.52 -353.33 -107.95 -353.32 -127.6 -363.15 -157.03 -372.94 -176.66 -372.96 -68.69 -137.41 -39.27 -117.77 -29.45 -98.14 -9.8 -88.33 9.8 -49.08 9.83 -68.69 29.45 -98.14 29.44 -127.6 49.06 -157.03 49.08 -176.66 58.88 -215.91 78.53 -235.55 29.44 -88.33 29.44 -58.89 29.45 -29.44 39.25 -19.64 39.25 19.64 49.08 49.06 49.08 78.52 58.89 117.77 58.88 117.78 49.06 98.14 39.27 88.33 39.25 78.52 39.25 68.69 39.28 49.08 29.44 49.08 29.45 29.45 147.21 117.77 186.47 88.33 225.74 49.06 264.99 19.64 127.59 -9.81 127.6 -29.44 127.56 -49.08 117.77 -58.89 127.58 -88.33 117.78 -107.97 117.77 -117.77 117.77 -137.39 49.08 -78.53 58.89 -88.33 68.7 -107.96 68.71 -127.58 88.33 -157.03 88.33 -166.85 107.95 -186.47 107.97 -206.11 78.52 -147.21 68.69 -117.78 68.7 -98.16 58.88 -88.33 68.72 -68.69 58.89 -39.25 49.06 -29.45 49.08 -9.83 49.08 0 49.05 19.64 49.08 29.44 49.08 39.25 49.06 58.89 39.27 58.89 39.25 78.52 49.08 88.33 68.7 196.3 49.08 196.28 29.44 215.93 9.81 225.72 -9.81 157.05 -19.63 186.46 -29.45 215.92 -39.25 235.54 -29.44 157.05 -29.45 137.39 -39.27 107.97 -29.44 98.13 -39.25 68.72 -39.25 49.06 -39.28 39.27 -39.25 9.81 0 0 -29.44 -9.81 -19.64 -29.44 -19.61 -39.28 -9.83 -58.88 -9.81 -78.5 -9.8 -98.16 -9.83 -107.95 0 -323.88 -19.62 -157.04 -29.44 -117.78 -39.27 -88.33 -58.89 19.64 -58.89 39.25 -58.89 58.89 -68.69 68.71 -68.69 88.33 -58.89 107.95 -78.52 127.6 -68.7 147.22 -98.16 206.1 -88.33 196.28 -88.33 166.85 -78.5 157.03 -78.52 137.41 -68.7 117.77 -58.89 98.14 -58.88 88.33 -98.16 117.77 -107.95 107.97 -107.96 98.14 -117.78 68.72 -117.77 58.88 -127.56 39.25 -127.6 29.45 -127.59 9.8 -127.6 0 -107.94 -9.8 -98.16 -19.64 -78.51 -29.44 0 422.04 -9.83 382.76 -9.8 353.32 -9.81 314.05 -19.64 284.63 -19.63 245.36 -19.62 206.1 -29.44 176.66 -68.72 314.07 -88.33 294.44 -107.94 274.8 -137.41 264.99 -147.22 245.38 -166.85 235.55 -186.47 206.1 -206.11 196.28 0 0z"/>
  <g id="_2235865067696">
   <path class="fil3" d="M5691.85 32779.27c100.63,0 194.7,16.41 282.2,49.23 87.51,32.81 161.89,78.75 223.15,137.82 61.25,59.06 108.28,132.35 141.1,219.86 32.81,87.5 49.22,188.14 49.22,301.89l0 721.93 -708.8 0c-100.64,0 -195.8,-14.22 -285.49,-42.66 -89.7,-28.44 -165.17,-74.38 -226.42,-137.82 -61.26,-63.44 -111.58,-138.92 -150.95,-226.42 -39.38,-87.51 -59.07,-188.14 -59.07,-301.9 0,-113.76 19.69,-216.58 59.07,-308.46 39.37,-91.88 90.78,-168.45 154.23,-229.7 63.44,-61.26 140.01,-107.2 229.7,-137.83 89.7,-30.62 187.05,-45.94 292.06,-45.94zm334.71 735.05c0,-70 -4.38,-142.19 -13.13,-216.57 -8.75,-74.38 -25.16,-141.11 -49.22,-200.18 -24.07,-59.06 -57.98,-109.38 -101.73,-150.94 -43.75,-41.57 -105.01,-62.35 -183.76,-62.35 -65.63,0 -121.42,17.5 -167.36,52.5 -45.94,35.01 -82.04,80.95 -108.29,137.83 -26.25,56.88 -44.84,121.41 -55.78,193.6 -10.94,72.19 -16.41,141.11 -16.41,206.74 0,74.38 5.47,144.38 16.41,210.01 10.94,65.63 30.62,122.51 59.07,170.64 28.43,48.13 67.81,87.5 118.13,118.13 50.32,30.63 110.47,45.94 180.48,45.94l321.59 0 0 -505.35zm-59.07 -1122.26c-26.25,0 -53.6,-5.47 -82.04,-16.41 -28.44,-10.94 -52.5,-27.34 -72.19,-49.22 -19.69,-21.88 -36.1,-44.85 -49.22,-68.91 -13.13,-24.07 -19.69,-51.41 -19.69,-82.04 0,-35.01 6.56,-66.73 19.69,-95.16 13.12,-28.44 29.53,-51.42 49.22,-68.92 19.69,-17.5 43.75,-32.81 72.19,-45.94 28.44,-13.12 59.07,-19.68 91.88,-19.68 32.82,0 62.35,6.56 88.61,19.68 26.25,13.13 49.22,28.44 68.91,45.94 19.68,17.5 36.09,40.48 49.22,68.92 13.13,28.43 19.69,60.15 19.69,95.16 0,30.63 -6.56,57.97 -19.69,82.04 -13.13,24.06 -29.54,47.03 -49.22,68.91 -19.69,21.88 -42.66,38.28 -68.91,49.22 -26.26,10.94 -59.07,16.41 -98.45,16.41zm-472.53 -16.41c-26.26,10.94 -54.7,16.41 -85.32,16.41 -30.63,0 -60.16,-5.47 -88.6,-16.41 -28.44,-10.94 -52.51,-27.34 -72.2,-49.22 -19.69,-21.88 -37.19,-44.85 -52.5,-68.91 -15.32,-24.07 -22.97,-51.41 -22.97,-82.04 0,-35.01 7.65,-66.73 22.97,-95.16 15.31,-28.44 32.81,-51.42 52.5,-68.92 19.69,-17.5 43.76,-32.81 72.2,-45.94 28.44,-13.12 57.97,-19.68 88.6,-19.68 30.62,0 59.06,6.56 85.32,19.68 26.25,13.13 50.31,28.44 72.19,45.94 21.87,17.5 38.28,40.48 49.22,68.92 10.94,28.43 16.41,60.15 16.41,95.16 0,30.63 -5.47,57.97 -16.41,82.04 -10.94,24.06 -27.35,47.03 -49.22,68.91 -21.88,21.88 -45.94,38.28 -72.19,49.22zm2533.31 1644.02l0 190.33 -216.58 0c-39.38,0 -74.38,-6.56 -105.01,-19.69 -30.63,-13.12 -61.25,-30.63 -91.88,-52.5 -30.63,-21.88 -57.97,-47.04 -82.04,-75.48 -24.06,-28.43 -47.04,-62.35 -68.91,-101.72l0 203.45c4.37,131.26 -7.66,242.83 -36.1,334.71 -28.44,91.88 -73.29,172.82 -134.54,242.83 -61.25,70.01 -140.01,126.89 -236.27,170.64 -96.25,43.75 -205.64,87.5 -328.15,131.26l-26.25 -52.5c70.01,-35.01 126.89,-67.82 170.64,-98.45 43.76,-30.63 80.95,-66.72 111.57,-108.29 30.63,-41.56 54.69,-85.32 72.19,-131.26 17.5,-45.94 28.45,-97.35 32.82,-154.23 4.37,-56.88 7.66,-121.41 9.84,-193.61 2.19,-72.19 3.29,-154.23 3.29,-246.11l0 -498.78 -13.13 -374.09 65.63 -52.51 505.35 210.02 0 59.06c0,0 -37.19,24.07 -111.57,72.2 -21.88,13.12 -40.47,28.44 -55.79,45.94 -15.31,17.5 -24.06,38.28 -26.25,62.34 -2.19,24.07 -3.28,64.54 -3.28,121.42l0 157.51c43.75,43.75 97.35,80.94 160.79,111.57 63.45,30.63 125.79,45.94 187.05,45.94l216.58 0zm800.68 511.92c35.01,0 65.63,6.56 91.88,19.69 26.25,13.12 50.32,29.53 72.2,49.22 21.87,19.69 38.28,43.75 49.22,72.19 10.93,28.44 16.4,55.78 16.4,82.04 0,30.63 -5.47,60.16 -16.4,88.6 -10.94,28.44 -27.35,52.5 -49.22,72.19 -21.88,19.69 -45.95,35 -72.2,45.94 -26.25,10.94 -56.87,16.41 -91.88,16.41 -26.25,0 -53.6,-5.47 -82.04,-16.41 -28.44,-10.94 -53.6,-26.25 -75.47,-45.94 -21.88,-19.69 -38.28,-43.75 -49.22,-72.19 -10.94,-28.44 -16.41,-57.97 -16.41,-88.6 0,-26.26 5.47,-53.6 16.41,-82.04 10.94,-28.44 27.34,-52.5 49.22,-72.19 21.87,-19.69 47.03,-36.1 75.47,-49.22 28.44,-13.13 55.79,-19.69 82.04,-19.69zm-557.85 0c26.25,0 53.6,6.56 82.04,19.69 28.43,13.12 53.59,29.53 75.47,49.22 21.87,19.69 38.28,43.75 49.22,72.19 10.94,28.44 16.41,55.78 16.41,82.04 0,30.63 -5.47,60.16 -16.41,88.6 -10.94,28.44 -27.35,52.5 -49.22,72.19 -21.88,19.69 -47.04,35 -75.47,45.94 -28.44,10.94 -55.79,16.41 -82.04,16.41 -35,0 -65.63,-5.47 -91.88,-16.41 -26.26,-10.94 -50.32,-26.25 -72.2,-45.94 -21.87,-19.69 -39.37,-43.75 -52.5,-72.19 -13.13,-28.44 -19.69,-57.97 -19.69,-88.6 0,-26.26 6.56,-53.6 19.69,-82.04 13.13,-28.44 30.63,-52.5 52.5,-72.19 21.88,-19.69 45.94,-36.1 72.2,-49.22 26.25,-13.13 56.88,-19.69 91.88,-19.69zm1148.52 -511.92l0 190.33 -229.71 0c-30.62,0 -62.35,-6.56 -95.16,-19.69 -32.81,-13.12 -63.44,-30.63 -91.88,-52.5 -28.44,-21.88 -54.69,-47.04 -78.76,-75.48 -24.06,-28.43 -47.03,-62.35 -68.91,-101.72l0 249.39 -905.69 0 0 -190.33 538.16 0 0 -787.55 -6.56 -380.65 52.51 -39.38 505.35 210.01 0 45.94c-30.63,30.63 -56.88,50.32 -78.76,59.07 -21.87,8.75 -39.38,18.6 -52.5,29.53 -13.13,10.94 -24.07,21.88 -32.82,32.82 -8.75,10.94 -14.22,25.16 -16.4,42.66 -2.19,17.5 -3.29,37.19 -3.29,59.06l0 85.32 0 485.66c43.75,43.75 95.17,80.94 154.23,111.57 59.07,30.63 119.23,45.94 180.48,45.94l229.71 0zm249.39 0l0 -472.53 -6.56 -374.09 59.07 -45.94 406.9 177.2c48.13,-78.75 102.82,-147.67 164.08,-206.74 61.25,-59.06 125.79,-110.47 193.61,-154.22 67.81,-43.76 134.53,-76.57 200.17,-98.45 65.62,-21.87 131.25,-32.81 196.88,-32.81 214.39,0 371.91,65.63 472.54,196.89 100.63,131.26 150.95,323.77 150.95,577.54l0 275.64c43.75,43.75 95.16,80.94 154.23,111.57 59.06,30.63 121.41,45.94 187.04,45.94l183.76 0 0 190.33 -183.76 0c-39.38,0 -75.47,-6.56 -108.29,-19.69 -32.81,-13.12 -62.35,-30.63 -88.6,-52.5 -26.25,-21.88 -51.41,-47.04 -75.47,-75.48 -24.07,-28.43 -47.04,-62.35 -68.91,-101.72l0 249.39 -2178.91 0 0 -190.33 341.27 0zm1463.55 -452.84c0,0 0,-65.63 0,-196.89 0,-70 -7.66,-135.64 -22.97,-196.89 -15.32,-61.25 -44.85,-109.38 -88.6,-144.39 -43.76,-35 -100.64,-52.5 -170.64,-52.5 -52.5,0 -108.29,10.94 -167.36,32.82 -59.06,21.87 -124.7,56.87 -196.88,105.01 -72.2,48.12 -144.39,110.47 -216.58,187.04 -72.2,76.56 -147.67,167.36 -226.43,272.36l0 124.7 0 262.52 0 26.25 0 32.81 1089.46 0 0 -452.84zm1397.91 964.76c26.26,0 54.69,6.56 85.32,19.69 30.63,13.12 54.7,29.53 72.2,49.22 17.5,19.69 32.81,43.75 45.94,72.19 13.12,28.44 19.68,55.78 19.68,82.04 0,30.63 -6.56,60.16 -19.68,88.6 -13.13,28.44 -28.44,52.5 -45.94,72.19 -17.5,19.69 -41.57,35 -72.2,45.94 -30.63,10.94 -59.06,16.41 -85.32,16.41 -30.62,0 -61.25,-5.47 -91.88,-16.41 -30.62,-10.94 -55.78,-26.25 -75.47,-45.94 -19.69,-19.69 -35,-43.75 -45.94,-72.19 -10.94,-28.44 -16.41,-57.97 -16.41,-88.6 0,-26.26 5.47,-53.6 16.41,-82.04 10.94,-28.44 26.25,-52.5 45.94,-72.19 19.69,-19.69 44.85,-36.1 75.47,-49.22 30.63,-13.13 61.26,-19.69 91.88,-19.69zm616.93 -1509.49l0 45.94c-35.01,30.63 -62.35,50.32 -82.04,59.07 -19.69,8.75 -37.19,18.6 -52.51,29.53 -15.31,10.94 -26.25,21.88 -32.81,32.82 -6.56,10.94 -12.03,25.16 -16.41,42.66 -4.38,17.5 -6.56,37.19 -6.56,59.06l0 85.32 0 833.5 -997.58 0 0 -190.33 636.62 0 0 -787.55 -19.69 -380.65 59.06 -39.38 511.92 210.01zm3642.45 -6.56l0 52.5c-43.75,35.01 -77.66,60.16 -101.73,75.48 -24.06,15.31 -42.66,30.62 -55.79,45.94 -13.12,15.31 -19.68,36.1 -19.68,62.35l0 124.69 0 833.5 -1634.19 0c-43.75,0 -95.16,-1.09 -154.23,-3.28 -59.06,-2.19 -119.22,-8.75 -180.48,-19.69 -61.25,-10.94 -120.32,-27.35 -177.19,-49.22 -56.88,-21.88 -106.11,-50.32 -147.67,-85.32 -41.57,-35 -76.57,-78.76 -105.01,-131.26 -28.44,-52.51 -42.66,-115.95 -42.66,-190.33 0,-70 14.22,-137.82 42.66,-203.45 28.44,-65.63 64.54,-125.79 108.29,-180.48 43.75,-54.69 91.88,-103.91 144.39,-147.67l124.69 -105 52.5 39.37c-17.5,26.25 -33.9,55.79 -49.22,88.6 -15.31,32.82 -27.34,71.1 -36.09,114.86 -8.76,43.75 -17.5,84.22 -26.26,121.41 -8.75,37.19 -13.12,73.29 -13.12,108.29 0,100.63 17.5,182.67 52.5,246.11 35,63.44 79.85,109.39 134.54,137.82 54.69,28.44 117.04,47.04 187.05,55.79 70,8.75 140.01,13.12 210.01,13.12l1141.96 0 0 -787.55 -19.69 -380.65 65.63 -39.38 498.79 203.45zm-1266.65 -754.74c0,-30.63 6.56,-60.16 19.68,-88.6 13.13,-28.44 28.44,-52.51 45.94,-72.19 17.5,-19.69 40.48,-36.1 68.91,-49.23 28.44,-13.12 57.98,-19.69 88.61,-19.69 30.62,0 59.06,6.57 85.31,19.69 26.26,13.13 50.32,29.54 72.2,49.23 21.87,19.68 39.37,43.75 52.5,72.19 13.13,28.44 19.69,56.88 19.69,85.32 0,28.44 -6.56,57.97 -19.69,88.59 -13.13,30.63 -30.63,54.7 -52.5,72.2 -21.88,17.5 -45.94,32.81 -72.2,45.94 -26.25,13.13 -54.69,19.69 -85.31,19.69 -30.63,0 -60.17,-6.56 -88.61,-19.69 -28.43,-13.13 -51.41,-28.44 -68.91,-45.94 -17.5,-17.5 -32.81,-41.57 -45.94,-72.2 -13.12,-30.62 -19.68,-59.06 -19.68,-85.31zm-341.28 223.14c-30.63,0 -60.16,-6.56 -88.6,-19.69 -28.44,-13.13 -52.51,-28.44 -72.19,-45.94 -19.69,-17.5 -36.1,-41.57 -49.23,-72.2 -13.12,-30.62 -19.69,-60.15 -19.69,-88.59 0,-28.44 6.57,-56.88 19.69,-85.32 13.13,-28.44 29.54,-52.51 49.23,-72.19 19.68,-19.69 43.75,-36.1 72.19,-49.23 28.44,-13.12 56.88,-19.69 85.32,-19.69 28.44,0 56.88,6.57 85.31,19.69 28.45,13.13 52.51,29.54 72.2,49.23 19.69,19.68 37.19,43.75 52.5,72.19 15.32,28.44 22.97,56.88 22.97,85.32 0,28.44 -7.65,57.97 -22.97,88.59 -15.31,30.63 -32.81,54.7 -52.5,72.2 -19.69,17.5 -43.75,32.81 -72.2,45.94 -28.43,13.13 -55.78,19.69 -82.03,19.69zm2874.58 1535.73l0 190.33 -472.53 0 -367.53 0 0 -1817.94 -13.12 -360.97 59.06 -59.07 505.36 216.58 0 39.38c-48.13,39.38 -84.23,66.73 -108.3,82.04 -24.06,15.31 -41.56,30.63 -52.5,45.94 -10.94,15.31 -17.5,35 -19.69,59.07 -2.19,24.06 -3.28,66.72 -3.28,127.98l0 1476.66 472.53 0zm1397.92 -892.56c96.26,0 183.76,12.03 262.52,36.1 78.75,24.06 148.76,60.16 210.01,108.28 61.26,48.14 108.29,109.39 141.11,183.77 32.81,74.38 49.22,166.26 49.22,275.64l0 479.1 -2192.04 0 0 -190.33 1831.08 0 0 -255.95c0,-87.51 -6.56,-159.7 -19.69,-216.58 -13.13,-56.88 -35.01,-102.82 -65.63,-137.82 -30.63,-35 -70.01,-59.07 -118.14,-72.19 -48.13,-13.13 -107.19,-19.69 -177.2,-19.69l-991.01 0 0 -190.33 669.43 -577.54 472.53 -420.03c65.63,-56.88 130.17,-119.23 193.61,-187.05 63.44,-67.81 114.85,-141.1 154.23,-219.86l32.81 0c4.38,61.26 -6.56,122.51 -32.81,183.77 -26.25,61.25 -63.44,124.69 -111.57,190.32 -48.13,65.64 -100.63,129.08 -157.51,190.33 -56.88,61.26 -115.95,120.32 -177.2,177.2l-164.08 150.95c-48.12,48.13 -89.69,87.51 -124.69,118.13l-459.41 393.78 774.43 0zm2382.36 892.56l0 190.33 -216.58 0c-39.37,0 -74.38,-6.56 -105,-19.69 -30.63,-13.12 -61.26,-30.63 -91.88,-52.5 -30.63,-21.88 -57.98,-47.04 -82.04,-75.48 -24.06,-28.43 -47.04,-62.35 -68.91,-101.72l0 203.45c4.37,131.26 -7.66,242.83 -36.1,334.71 -28.44,91.88 -73.29,172.82 -134.54,242.83 -61.26,70.01 -140.01,126.89 -236.27,170.64 -96.25,43.75 -205.64,87.5 -328.15,131.26l-26.25 -52.5c70,-35.01 126.88,-67.82 170.64,-98.45 43.75,-30.63 80.94,-66.72 111.57,-108.29 30.62,-41.56 54.69,-85.32 72.19,-131.26 17.5,-45.94 28.44,-97.35 32.81,-154.23 4.38,-56.88 7.66,-121.41 9.85,-193.61 2.19,-72.19 3.28,-154.23 3.28,-246.11l0 -498.78 -13.13 -374.09 65.64 -52.51 505.34 210.02 0 59.06c0,0 -37.19,24.07 -111.57,72.2 -21.87,13.12 -40.46,28.44 -55.78,45.94 -15.31,17.5 -24.07,38.28 -26.25,62.34 -2.19,24.07 -3.28,64.54 -3.28,121.42l0 157.51c43.75,43.75 97.35,80.94 160.79,111.57 63.44,30.63 125.79,45.94 187.04,45.94l216.58 0zm1463.55 -2113.27c-30.63,0 -59.07,-5.47 -85.32,-16.41 -26.25,-10.94 -50.31,-26.25 -72.19,-45.94 -21.88,-19.69 -37.19,-43.75 -45.94,-72.19 -8.75,-28.44 -13.13,-56.88 -13.13,-85.32 0,-28.44 4.38,-55.79 13.13,-82.04 8.75,-26.25 24.06,-50.32 45.94,-72.19 21.88,-21.88 45.94,-38.29 72.19,-49.22 26.25,-10.94 55.79,-16.41 88.6,-16.41 32.81,0 62.35,5.47 88.6,16.41 26.25,10.93 49.22,27.34 68.91,49.22 19.69,21.87 36.1,45.94 49.22,72.19 13.13,26.25 19.69,53.6 19.69,82.04 0,28.44 -6.56,56.88 -19.69,85.32 -13.12,28.44 -29.53,52.5 -49.22,72.19 -19.69,19.69 -42.66,35 -68.91,45.94 -26.25,10.94 -56.88,16.41 -91.88,16.41zm59.07 354.4c0,-26.26 5.47,-54.69 16.41,-85.32 10.93,-30.63 27.34,-55.79 49.22,-75.47 21.87,-19.69 47.03,-35.01 75.47,-45.95 28.44,-10.93 57.97,-16.4 88.6,-16.4 30.63,0 59.07,5.47 85.32,16.4 26.25,10.94 50.32,26.26 72.19,45.95 21.88,19.68 39.38,44.84 52.51,75.47 13.12,30.63 19.69,59.06 19.69,85.32 0,26.25 -6.57,54.69 -19.69,85.31 -13.13,30.63 -30.63,54.7 -52.51,72.2 -21.87,17.5 -45.94,32.81 -72.19,45.94 -26.25,13.13 -54.69,19.69 -85.32,19.69 -30.63,0 -60.16,-6.56 -88.6,-19.69 -28.44,-13.13 -53.6,-28.44 -75.47,-45.94 -21.88,-17.5 -38.29,-41.57 -49.22,-72.2 -10.94,-30.62 -16.41,-59.06 -16.41,-85.31zm-334.72 223.14c-39.37,0 -71.09,-6.56 -95.16,-19.69 -24.06,-13.13 -45.94,-28.44 -65.63,-45.94 -19.69,-17.5 -35,-41.57 -45.94,-72.2 -10.94,-30.62 -16.41,-59.06 -16.41,-85.31 0,-26.26 5.47,-54.69 16.41,-85.32 10.94,-30.63 26.25,-55.79 45.94,-75.47 19.69,-19.69 41.57,-35.01 65.63,-45.95 24.07,-10.93 52.5,-16.4 85.32,-16.4 32.82,0 64.54,5.47 95.16,16.4 30.63,10.94 55.79,26.26 75.48,45.95 19.68,19.68 35,44.84 45.94,75.47 10.93,30.63 16.4,59.06 16.4,85.32 0,26.25 -5.47,54.69 -16.4,85.31 -10.94,30.63 -26.26,54.7 -45.94,72.2 -19.69,17.5 -44.85,32.81 -75.48,45.94 -30.62,13.13 -59.06,19.69 -85.32,19.69zm1555.43 859.75l0 45.94c-26.25,21.88 -51.41,41.57 -75.48,59.07 -24.06,17.5 -41.56,29.53 -52.5,36.09 -10.94,6.56 -20.78,15.32 -29.53,26.26 -8.75,10.93 -14.22,22.96 -16.41,36.09 -2.19,13.13 -3.28,32.82 -3.28,59.07 -4.38,21.87 -6.56,52.5 -6.56,91.88l0 511.91 -577.54 0c-43.76,0 -80.95,-6.56 -111.58,-19.69 -30.62,-13.12 -60.16,-30.63 -88.59,-52.5 -28.45,-21.88 -54.7,-47.04 -78.76,-75.48 -24.07,-28.43 -47.04,-62.35 -68.91,-101.72l0 249.39 -577.55 0c-39.37,0 -75.47,-6.56 -108.28,-19.69 -32.82,-13.12 -62.35,-30.63 -88.61,-52.5 -26.25,-21.88 -52.5,-47.04 -78.75,-75.48 -26.25,-28.43 -50.32,-62.35 -72.19,-101.72l0 249.39 -833.5 0 0 -190.33 472.53 0 0 -472.53 -13.12 -374.09 65.63 -45.94 308.46 137.82 0 597.23c39.37,43.75 91.88,80.94 157.51,111.57 65.63,30.63 129.07,45.94 190.32,45.94l210.02 0 0 -472.53 -6.56 -374.09 59.06 -45.94 315.03 137.82 0 597.23c39.37,43.75 89.69,80.94 150.94,111.57 61.26,30.63 126.89,45.94 196.9,45.94l216.58 0 0 -472.53 -13.13 -374.09 59.06 -45.94 498.79 216.58zm2854.9 675.98l0 190.33 -1056.64 0c-105.01,0 -201.27,-14.22 -288.78,-42.66 -87.5,-28.44 -164.07,-74.38 -229.7,-137.82 -65.63,-63.44 -117.04,-138.92 -154.23,-226.42 -37.19,-87.51 -55.78,-188.14 -55.78,-301.9 0,-113.76 20.78,-216.58 62.35,-308.46 41.56,-91.88 94.07,-168.45 157.51,-229.7 63.44,-61.26 138.91,-107.2 226.42,-137.83 87.5,-30.62 181.58,-45.94 282.21,-45.94 109.38,0 206.73,16.41 292.05,49.23 85.32,32.81 158.6,78.75 219.86,137.82 61.26,59.06 109.38,132.35 144.38,219.86 35.01,87.5 52.51,188.14 52.51,301.89l0 531.6 347.84 0zm-715.37 -505.35c0,-70 -4.37,-142.19 -13.12,-216.57 -8.75,-74.38 -25.16,-141.11 -49.23,-200.18 -24.06,-59.06 -56.88,-109.38 -98.44,-150.94 -41.57,-41.57 -103.91,-62.35 -187.04,-62.35 -61.26,0 -115.95,17.5 -164.08,52.5 -48.13,35.01 -84.22,80.95 -108.29,137.83 -24.06,56.88 -43.75,121.41 -59.07,193.6 -15.31,72.19 -22.97,141.11 -22.97,206.74 0,74.38 7.66,144.38 22.97,210.01 15.32,65.63 36.1,122.51 62.35,170.64 26.26,48.13 64.54,87.5 114.86,118.13 50.31,30.63 110.47,45.94 180.48,45.94l321.58 0 0 -505.35zm-52.5 -1122.26c-30.63,0 -59.07,-5.47 -85.32,-16.41 -26.25,-10.94 -49.22,-27.34 -68.91,-49.22 -19.69,-21.88 -36.1,-44.85 -49.22,-68.91 -13.13,-24.07 -19.69,-51.41 -19.69,-82.04 0,-35.01 6.56,-66.73 19.69,-95.16 13.12,-28.44 29.53,-51.42 49.22,-68.92 19.69,-17.5 42.66,-32.81 68.91,-45.94 26.25,-13.12 55.78,-19.68 88.6,-19.68 32.82,0 62.35,6.56 88.6,19.68 26.25,13.13 49.22,28.44 68.91,45.94 19.69,17.5 36.1,40.48 49.22,68.92 13.13,28.43 19.69,60.15 19.69,95.16 0,30.63 -6.56,57.97 -19.69,82.04 -13.12,24.06 -29.53,47.03 -49.22,68.91 -19.69,21.88 -42.66,38.28 -68.91,49.22 -26.25,10.94 -56.88,16.41 -91.88,16.41zm-564.42 0c-26.25,0 -54.69,-5.47 -85.32,-16.41 -30.62,-10.94 -54.69,-27.34 -72.19,-49.22 -17.5,-21.88 -33.91,-44.85 -49.22,-68.91 -15.31,-24.07 -22.97,-51.41 -22.97,-82.04 0,-35.01 7.66,-66.73 22.97,-95.16 15.31,-28.44 31.72,-51.42 49.22,-68.92 17.5,-17.5 41.57,-32.81 72.19,-45.94 30.63,-13.12 61.26,-19.68 91.88,-19.68 30.63,0 57.98,6.56 82.04,19.68 24.07,13.13 47.04,28.44 68.92,45.94 21.87,17.5 38.28,40.48 49.22,68.92 10.93,28.43 16.4,60.15 16.4,95.16 0,30.63 -5.47,57.97 -16.4,82.04 -10.94,24.06 -27.35,47.03 -49.22,68.91 -21.88,21.88 -44.85,38.28 -68.92,49.22 -24.06,10.94 -53.59,16.41 -88.6,16.41zm1995.15 1627.61l931.94 0 0 190.33 -1712.94 0 0 -190.33 406.91 0 0 -741.61c0,-56.88 13.12,-114.85 39.38,-173.92 26.25,-59.07 66.72,-110.48 121.41,-154.23 54.69,-43.75 119.23,-77.66 193.61,-101.73 74.38,-24.06 159.7,-36.09 255.95,-36.09 65.63,0 132.36,10.94 200.18,32.81 67.81,21.88 132.35,52.51 193.6,91.88 61.26,39.38 119.23,85.32 173.92,137.83 54.7,52.5 97.35,107.19 127.98,164.07l-45.94 19.69c-78.76,-87.51 -156.42,-150.95 -232.99,-190.33 -76.57,-39.38 -147.66,-64.53 -213.3,-75.47 -65.62,-10.94 -125.78,-5.47 -180.48,16.41 -54.69,21.87 -100.63,51.4 -137.82,88.59 -37.19,37.2 -66.72,82.04 -88.6,134.55 -21.88,52.5 -32.81,109.38 -32.81,170.63l0 616.92zm2966.47 190.33l-269.09 0c-4.37,122.51 -18.59,226.42 -42.66,311.74 -24.06,85.32 -62.34,160.79 -114.85,226.43 -52.5,65.62 -123.6,119.22 -213.29,160.79 -89.7,41.56 -191.42,84.22 -305.18,127.97l-26.26 -45.93c91.89,-48.13 159.7,-95.17 203.46,-141.11 43.75,-45.94 76.56,-99.54 98.44,-160.79 21.88,-61.26 33.91,-130.17 36.1,-206.73 2.19,-76.57 3.28,-167.36 3.28,-272.37l-334.71 0c-105.01,0 -202.36,-16.41 -292.06,-49.22 -89.69,-32.82 -165.16,-79.85 -226.42,-141.11 -61.25,-61.25 -109.38,-135.63 -144.38,-223.14 -35.01,-87.5 -52.51,-185.95 -52.51,-295.33 0,-105.01 18.6,-203.45 55.79,-295.33 37.19,-91.88 87.5,-169.55 150.95,-232.99 63.44,-63.44 137.82,-111.57 223.14,-144.38 85.32,-32.82 180.48,-49.23 285.49,-49.23 109.38,0 206.73,16.41 292.05,49.23 85.32,32.81 157.51,78.75 216.58,137.82 59.07,59.06 105.01,132.35 137.82,219.86 32.82,87.5 49.22,188.14 49.22,301.89l0 531.6 269.09 0 0 190.33zm-1306.04 -735.05c0,74.38 3.28,144.38 9.85,210.01 6.56,65.63 22.97,122.51 49.22,170.64 26.25,48.13 63.44,87.5 111.57,118.13 48.13,30.63 113.76,45.94 196.89,45.94l301.89 0 0 -498.78c0,-74.38 -2.18,-148.76 -6.56,-223.14 -4.37,-74.38 -17.5,-141.11 -39.37,-200.18 -21.88,-59.06 -56.88,-109.38 -105.01,-150.94 -48.13,-41.57 -109.39,-62.35 -183.77,-62.35 -70,0 -126.88,17.5 -170.63,52.5 -43.75,35.01 -78.76,80.95 -105.01,137.83 -26.25,56.88 -42.66,121.41 -49.22,193.6 -6.57,72.19 -9.85,141.11 -9.85,206.74zm3557.14 544.72l0 190.33 -216.58 0c-39.38,0 -76.57,-6.56 -111.57,-19.69 -35,-13.12 -66.73,-30.63 -95.16,-52.5 -28.45,-21.88 -54.7,-47.04 -78.76,-75.48 -24.07,-28.43 -47.04,-62.35 -68.91,-101.72 -48.13,78.75 -113.76,140.01 -196.89,183.76 -83.13,43.75 -179.39,65.63 -288.77,65.63 -65.63,0 -125.79,-6.56 -180.48,-19.69 -54.7,-13.12 -100.64,-31.72 -137.83,-55.78 -37.19,-24.07 -66.72,-51.41 -88.6,-82.04 -21.87,-30.63 -39.38,-61.25 -52.5,-91.88l0 249.39 -826.94 0 0 -190.33 465.97 0 0 -472.53c0,-109.38 15.32,-204.55 45.94,-285.49 30.63,-80.94 76.57,-147.66 137.83,-200.17 61.25,-52.5 133.45,-91.88 216.57,-118.13 83.14,-26.26 179.39,-39.38 288.78,-39.38 105.01,0 201.26,14.22 288.77,42.66 87.5,28.44 164.07,70 229.7,124.7 65.63,54.69 118.13,124.69 157.51,210.01 39.38,85.32 59.07,180.48 59.07,285.49 0,122.51 -26.25,231.89 -78.76,328.15 43.76,39.38 91.88,70 144.39,91.88 52.5,21.88 109.38,32.81 170.64,32.81l216.58 0zm-1148.53 0c52.51,0 100.64,-12.03 144.39,-36.09 43.75,-24.06 77.66,-56.88 101.73,-98.44 24.06,-41.57 42.66,-91.89 55.78,-150.95 13.13,-59.07 19.69,-121.42 19.69,-187.05 0,-78.75 -5.47,-149.86 -16.41,-213.3 -10.93,-63.44 -29.53,-118.13 -55.78,-164.07 -26.25,-45.94 -62.35,-83.13 -108.29,-111.57 -45.94,-28.44 -106.1,-42.66 -180.48,-42.66 -74.38,0 -133.45,16.41 -177.21,49.22 -43.75,32.81 -76.56,75.48 -98.44,127.98 -21.87,52.5 -36.09,112.66 -42.66,180.48 -6.56,67.82 -9.84,134.54 -9.84,200.17l0 190.33c0,13.12 4.38,35 13.12,65.63 8.76,30.63 28.45,60.16 59.07,88.6 30.63,28.44 68.91,52.5 114.85,72.19 45.94,19.69 106.1,29.53 180.48,29.53zm2034.53 958.2c-35,0 -65.63,-5.47 -91.88,-16.41 -26.25,-10.94 -50.32,-26.25 -72.2,-45.94 -21.87,-19.69 -37.19,-43.75 -45.93,-72.19 -8.76,-28.44 -13.13,-57.97 -13.13,-88.6 0,-26.26 4.37,-53.6 13.13,-82.04 8.74,-28.44 24.06,-52.5 45.93,-72.19 21.88,-19.69 45.95,-36.1 72.2,-49.22 26.25,-13.13 56.88,-19.69 91.88,-19.69 26.25,0 53.59,6.56 82.04,19.69 28.43,13.12 53.59,29.53 75.47,49.22 21.88,19.69 38.28,43.75 49.22,72.19 10.94,28.44 16.41,55.78 16.41,82.04 0,30.63 -5.47,60.16 -16.41,88.6 -10.94,28.44 -27.34,52.5 -49.22,72.19 -21.88,19.69 -47.04,35 -75.47,45.94 -28.45,10.94 -55.79,16.41 -82.04,16.41zm1102.58 -958.2l0 190.33 -216.58 0c-35,0 -68.91,-6.56 -101.72,-19.69 -32.82,-13.12 -63.45,-30.63 -91.89,-52.5 -28.44,-21.88 -54.69,-47.04 -78.75,-75.48 -24.07,-28.43 -47.04,-62.35 -68.92,-101.72l0 249.39 -1522.61 0 0 -190.33 1122.28 0 0 -505.35c0,-83.12 -3.29,-155.32 -9.85,-216.57 -6.56,-61.26 -22.97,-113.76 -49.22,-157.51 -26.25,-39.38 -64.54,-73.29 -114.85,-101.73 -50.32,-28.44 -107.2,-40.47 -170.64,-36.1 -63.45,4.38 -131.26,25.16 -203.45,62.35 -72.2,37.19 -143.3,103.92 -213.3,200.17l-59.07 -26.25c39.38,-70 85.32,-132.35 137.83,-187.04 52.5,-54.7 110.47,-101.73 173.91,-141.11 63.44,-39.37 129.08,-66.72 196.89,-82.03 67.82,-15.32 136.73,-20.79 206.74,-16.41 70,8.75 136.73,26.25 200.17,52.5 63.44,26.25 117.04,60.16 160.79,101.73 43.75,41.56 78.76,89.69 105.01,144.38 26.25,54.69 39.37,110.48 39.37,167.36l0 584.1c43.76,43.75 96.26,80.94 157.52,111.57 61.25,30.63 122.5,45.94 183.76,45.94l216.58 0z"/>
   <path class="fil3" d="M36314.72 32903.97c105.01,0 201.26,14.22 288.77,42.66 87.5,28.44 164.07,70 229.7,124.7 65.63,54.69 117.04,124.69 154.24,210.01 37.19,85.32 55.78,180.48 55.78,285.49 0,96.26 -15.32,183.76 -45.94,262.52 -30.63,78.75 -71.1,147.67 -121.42,206.73 -50.31,59.07 -112.66,102.82 -187.04,131.26 -74.38,28.44 -155.32,42.66 -242.83,42.66 -65.63,0 -125.79,-6.56 -180.48,-19.69 -54.69,-13.12 -100.64,-31.72 -137.83,-55.78 -37.19,-24.07 -66.72,-51.41 -88.6,-82.04 -21.87,-30.63 -39.37,-61.25 -52.5,-91.88l0 249.39 -748.18 0 0 -190.33 387.22 0 0 -472.53c0,-109.38 15.31,-204.55 45.94,-285.49 30.62,-80.94 75.47,-147.66 134.54,-200.17 59.06,-52.5 131.26,-91.88 216.58,-118.13 85.31,-26.26 182.67,-39.38 292.05,-39.38zm32.81 1115.7c56.88,0 105.01,-12.03 144.39,-36.09 39.38,-24.06 73.29,-56.88 101.72,-98.44 28.44,-41.57 49.23,-91.89 62.35,-150.95 13.13,-59.07 19.69,-121.42 19.69,-187.05 0,-78.75 -5.47,-149.86 -16.41,-213.3 -10.94,-63.44 -29.53,-118.13 -55.78,-164.07 -26.25,-45.94 -63.44,-83.13 -111.57,-111.57 -48.13,-28.44 -107.2,-42.66 -177.2,-42.66 -83.14,0 -144.39,16.41 -183.77,49.22 -39.37,32.81 -71.09,75.48 -95.16,127.98 -24.06,52.5 -38.28,112.66 -42.66,180.48 -4.37,67.82 -6.56,134.54 -6.56,200.17l0 190.33c0,13.12 4.37,35 13.13,65.63 8.74,30.63 28.43,60.16 59.06,88.6 30.63,28.44 68.91,52.5 114.86,72.19 45.93,19.69 103.91,29.53 173.91,29.53z"/>
  </g>
  <path class="fil3" d="M5547.91 36442.07l130.11 0c110.1,0 193.25,3.08 248.68,9.24 132.43,24.64 224.82,60.05 277.94,105.48 89.31,76.22 133.96,176.3 133.96,301.03 0,132.42 -43.88,244.06 -130.88,334.14 -87,90.08 -199.41,152.44 -336.45,187.08 15.4,0 27.72,1.54 37.73,5.39 41.57,10.01 76.22,17.71 106.24,23.87 29.26,6.16 57.75,13.86 86.23,22.33 27.72,9.24 51.59,20.02 70.06,32.33 76.22,43.12 131.66,92.39 167.07,147.06 48.51,72.37 73.14,150.9 73.14,236.36 0,206.33 -89.31,373.4 -267.15,499.66 -74.68,50.05 -161.68,81.61 -260.23,94.7 -99.32,13.09 -220.96,20.02 -363.4,20.02l-351.84 0 -73.14 0c1.54,-42.34 4.62,-103.94 8.46,-184.78 4.62,-81.61 7.7,-144.74 9.24,-190.16l4.62 -1006.27 -4.62 -351.08 -13.08 -286.4c48.5,3.08 122.41,4.62 220.96,4.62l226.35 -4.62zm-189.4 641.33l-4.62 254.84 138.59 0c154.75,0 275.62,-20.02 361.08,-60.82 150.13,-73.14 225.58,-192.48 225.58,-359.55 0,-65.44 -14.62,-127.8 -43.88,-187.09 -29.26,-59.28 -71.6,-101.62 -126.26,-127.8 -73.92,-36.19 -184.78,-54.66 -332.6,-54.66 -23.87,0 -58.52,1.54 -105.48,4.62 -46.19,3.08 -82.38,3.85 -107.79,3.85 -3.08,53.12 -4.62,130.11 -4.62,231.74l0 294.87zm4.62 1251.87c29.26,1.54 72.37,5.39 130.12,10.77 57.74,5.39 107.01,8.47 147.05,8.47 147.05,0 265.62,-43.11 355.69,-129.34 92.39,-93.16 138.59,-204.03 138.59,-332.6 0,-84.69 -13.86,-155.52 -40.81,-212.49 -27.71,-56.98 -75.45,-107.79 -143.2,-151.67 -76.99,-53.13 -219.42,-79.3 -424.99,-79.3l-171.69 0 9.24 886.16zm3205.77 -1930.16l836.12 1954.02 50.81 106.25c-67.75,-6.16 -117.02,-9.24 -147.82,-9.24 -73.91,0 -128.57,3.08 -162.45,9.24l-26.94 -87.77 -133.97 -351.08 -143.2 -350.3 -354.93 -10.78 -398.04 10.78c-144.74,369.55 -241.75,632.86 -291.02,789.15 -20.79,-6.16 -54.67,-9.24 -101.63,-9.24 -23.87,0 -60.82,3.08 -110.1,9.24l923.12 -2060.27 60.05 0zm226.36 1145.62l-327.98 -757.58 -322.59 757.58 354.92 0 295.65 0zm1849.19 526.62c61.6,99.32 129.35,174 202.49,224.81 73.14,50.04 163.99,75.45 272.54,75.45 118.57,0 216.35,-41.57 294.11,-123.95 77.76,-83.15 117.02,-183.24 117.02,-301.04 0,-161.68 -98.54,-286.4 -295.64,-373.4 -43.11,-20.02 -93.16,-41.58 -148.59,-64.67 -55.43,-22.33 -104.71,-43.89 -147.82,-64.67 -43.12,-20.79 -84.69,-43.89 -123.96,-70.07 -137.81,-92.38 -207.1,-227.89 -207.1,-406.51 0,-180.15 62.36,-319.51 186.31,-417.28 123.96,-97.78 280.25,-146.29 468.88,-146.29 177.84,0 319.51,46.2 424.98,138.59 -23.09,47.73 -50.81,129.34 -83.92,244.83l-26.94 0c-30.03,-81.61 -76.99,-147.06 -140.89,-194.79 -63.91,-48.5 -138.59,-72.37 -224.05,-72.37 -105.47,0 -194.01,33.11 -265.61,100.09 -71.61,66.98 -107.79,152.44 -107.79,254.84 0,113.17 41.57,204.02 123.95,273.31 33.88,27.72 72.37,52.36 116.26,73.14 43.11,23.1 81.61,40.04 114.72,50.82 28.48,12.31 55.43,22.32 79.3,32.33 24.63,9.24 43.11,16.94 54.66,23.1 25.41,10.01 50.04,20.79 73.91,30.8 24.64,10 44.65,20.01 60.82,30.02 96.24,53.9 157.06,97.01 183.24,128.58 83.92,103.16 125.49,208.64 125.49,314.12 0,135.5 -32.33,253.3 -97.77,354.92 -64.68,100.86 -153.21,177.85 -264.85,230.98 -112.41,53.12 -235.59,79.3 -371.1,79.3 -82.38,0 -170.91,-14.63 -266.38,-44.66 -96.24,-30.03 -167.07,-70.83 -214.04,-121.64 26.18,-68.53 44.66,-154.75 55.44,-258.69l32.33 0zm3181.92 -1626.04c67.75,0 168.6,-3.08 304.11,-9.24 0,9.24 -1.54,23.1 -4.62,41.57 -3.08,19.25 -3.85,34.65 -3.85,46.2 0,40.03 2.31,69.29 8.47,88.54 -29.26,-1.54 -69.29,-4.62 -120.11,-9.24 -50.81,-4.62 -97.77,-7.7 -142.43,-10.01l-295.65 -9.24 -217.12 0 -13.85 443.47 0 130.11 0 170.15 300.26 0 156.3 -9.24c30.8,-1.54 75.45,-3.85 133.19,-6.93 57.75,-2.31 101.63,-4.62 130.89,-6.16 -9.24,56.21 -13.86,85.46 -13.86,87.77 0,2.31 4.62,31.57 13.86,87.77 -110.87,-13.09 -198.64,-19.25 -264.08,-19.25l-160.92 -4.62 -130.11 0 -165.53 0 0 235.59 0 369.56c0,113.94 1.54,200.17 4.62,258.69 177.84,0 354.92,-4.62 531.24,-13.86 83.92,0 173.23,-7.7 267.93,-23.87 0,77.76 1.54,136.27 4.62,176.31l-204.03 -4.62c-159.37,-6.16 -281.02,-9.24 -364.17,-9.24 -27.72,0 -70.84,0.77 -128.58,2.31 -57.74,1.54 -101.63,2.31 -130.88,2.31 -24.64,0 -64.67,0.77 -119.34,2.31 -54.66,1.54 -97.01,2.31 -125.49,2.31l19.25 -369.55 4.62 -1011.66 -4.62 -258.69c0,-35.41 -4.62,-161.68 -14.63,-378.79l319.51 9.24 425 0zm2392.75 0c67.75,0 168.6,-3.08 304.11,-9.24 0,9.24 -1.54,23.1 -4.62,41.57 -3.08,19.25 -3.85,34.65 -3.85,46.2 0,40.03 2.31,69.29 8.47,88.54 -29.26,-1.54 -69.29,-4.62 -120.11,-9.24 -50.81,-4.62 -97.77,-7.7 -142.43,-10.01l-295.64 -9.24 -217.12 0 -13.85 443.47 0 130.11 0 170.15 300.26 0 156.29 -9.24c30.8,-1.54 75.45,-3.85 133.19,-6.93 57.75,-2.31 101.63,-4.62 130.89,-6.16 -9.24,56.21 -13.86,85.46 -13.86,87.77 0,2.31 4.62,31.57 13.86,87.77 -110.87,-13.09 -198.64,-19.25 -264.08,-19.25l-160.91 -4.62 -130.11 0 -165.53 0 0 235.59 0 369.56c0,113.94 1.54,200.17 4.62,258.69 177.84,0 354.92,-4.62 531.23,-13.86 83.92,0 173.23,-7.7 267.93,-23.87 0,77.76 1.54,136.27 4.62,176.31l-204.03 -4.62c-159.37,-6.16 -281.01,-9.24 -364.16,-9.24 -27.72,0 -70.84,0.77 -128.58,2.31 -57.74,1.54 -101.63,2.31 -130.88,2.31 -24.64,0 -64.67,0.77 -119.34,2.31 -54.66,1.54 -97.01,2.31 -125.49,2.31l19.25 -369.55 4.62 -1011.66 -4.62 -258.69c0,-35.41 -4.62,-161.68 -14.63,-378.79l319.51 9.24 424.99 0zm1916.94 923.11c15.4,0 37.73,0.77 68.53,2.31 30.79,1.54 54.66,2.31 70.06,2.31 84.69,0 166.3,-5.39 244.83,-17.7 113.94,-24.64 205.56,-73.91 274.85,-147.83 69.29,-73.91 103.94,-166.29 103.94,-277.16 0,-110.87 -32.34,-197.87 -97.01,-262.54 -53.12,-56.97 -128.57,-94.7 -226.35,-111.64 -36.96,-3.07 -98.55,-4.61 -184.78,-4.61 -110.86,0 -192.47,1.54 -244.83,4.61l-9.24 812.25zm-22.32 -923.11l391.88 -9.24c143.97,0 266.39,14.63 368.78,43.11 102.4,28.49 177.85,90.85 226.36,187.86 40.03,69.29 60.05,144.74 60.05,225.58 0,160.91 -57.74,287.95 -174,381.11 -116.26,92.38 -259.46,153.98 -430.38,183.23l609 771.45 143.2 166.3 50.81 64.67c-21.55,-1.54 -51.58,-3.85 -89.31,-7.7 -37.72,-3.85 -66.21,-6.16 -85.45,-6.16 -18.48,0 -45.43,2.31 -81.61,6.16 -35.42,3.85 -64.68,6.16 -85.46,7.7 -11.55,-16.94 -36.96,-53.12 -76.22,-106.25 -38.5,-53.89 -73.15,-101.62 -103.17,-143.2l-351.85 -453.47 -235.59 -275.63 -110.1 0 0 235.59 0 128.58 9.24 614.38c-56.2,-6.16 -100.08,-9.24 -133.19,-9.24 -33.88,0 -81.61,3.08 -143.2,9.24 0,-50.81 1.54,-106.25 4.62,-166.3 3.85,-60.05 6.16,-118.56 8.47,-175.54l13.85 -1035.52 -18.47 -572.81 0 -73.14 231.74 9.24zm3241.95 -46.2l836.12 1954.02 50.81 106.25c-67.75,-6.16 -117.02,-9.24 -147.82,-9.24 -73.91,0 -128.57,3.08 -162.45,9.24l-26.94 -87.77 -133.97 -351.08 -143.2 -350.3 -354.93 -10.78 -398.04 10.78c-144.74,369.55 -241.75,632.86 -291.02,789.15 -20.79,-6.16 -54.67,-9.24 -101.63,-9.24 -23.87,0 -60.82,3.08 -110.1,9.24l923.12 -2060.27 60.05 0zm226.36 1145.62l-327.98 -757.58 -322.59 757.58 354.92 0 295.65 0zm5507.68 -739.11c-81.61,-94.69 -180.93,-167.84 -297.95,-219.42 -117.03,-51.58 -240.21,-76.99 -368.02,-76.99 -121.64,0 -238.67,23.87 -350.31,72.37 -112.4,47.74 -207.87,116.26 -287.94,204.8 -143.97,166.3 -216.34,384.95 -216.34,656.73 0,132.42 20.78,260.99 62.36,387.26 40.8,125.49 101.63,232.51 182.47,319.51 153.21,160.14 367.24,240.21 642.1,240.21 187.85,0 344.91,-32.34 471.18,-97.01l0 -318.74 0 -161.68c0,-120.11 -3.08,-209.41 -9.24,-267.93 73.91,5.39 121.65,8.47 143.2,8.47 64.67,0 107.79,-6.16 129.35,-17.71l0 87.77 -10.01 295.65 0 350.3 0 101.63c-262.54,90.08 -529.7,134.73 -803.01,134.73 -211.73,0 -405.74,-43.11 -582.05,-130.11 -163.99,-73.14 -300.26,-202.48 -406.51,-388.03 -70.83,-133.2 -106.25,-308.73 -106.25,-526.62 0,-222.5 50.05,-413.44 149.36,-572.81 99.32,-159.37 236.36,-279.47 410.36,-359.54 174,-80.84 372.64,-120.88 595.14,-120.88 136.27,0 260.23,10.78 371.86,33.11 112.41,21.56 227.13,58.51 344.15,110.1 4.62,4.61 11.55,9.23 20.02,13.85 9.24,4.62 14.63,7.7 16.94,10.01 -12.32,34.65 -25.41,76.22 -39.27,124.73 -13.86,48.5 -23.87,83.92 -30.02,106.24l-31.57 0zm1509.67 1265.73l-9.24 -989.33 0 -22.33 64.67 9.24c76.99,0 133.97,-3.08 170.92,-9.24l-13.86 203.26 0 70.06 4.62 17.71 23.1 -36.96c53.12,-85.46 111.64,-151.67 176.31,-199.4 63.9,-48.51 148.59,-72.38 253.3,-72.38 11.55,6.16 22.32,9.24 32.33,9.24l-14.63 73.14 0 70.07 -4.61 59.28 0 36.95 -22.33 9.24c-0.77,-0.77 -5.39,-3.85 -13.86,-9.24 -7.7,-6.16 -14.63,-8.46 -19.25,-8.46 -26.17,-19.25 -61.59,-28.49 -105.47,-28.49 -82.38,0 -145.52,24.64 -189.4,73.14 -36.96,41.57 -63.13,81.61 -79.3,120.87 -23.87,70.84 -36.19,184.78 -36.19,341.84l0 361.09 9.24 286.4 0 22.33c-27.71,-6.16 -69.29,-9.24 -124.72,-9.24 -24.64,0 -60.83,3.08 -110.87,9.24l0 -79.3 9.24 -308.73zm2503.62 -1040.14c209.41,0 380.33,75.45 511.98,226.35 117.03,126.26 175.54,291.79 175.54,498.9 0,140.12 -35.42,274.08 -106.25,402.66 -133.19,221.73 -344.14,332.6 -632.86,332.6 -103.17,0 -203.25,-20.02 -301.03,-60.83 -83.15,-37.72 -160.14,-94.69 -229.43,-170.15 -64.68,-72.37 -108.56,-147.82 -132.43,-226.35 -23.09,-78.53 -34.64,-174 -34.64,-287.17 0,-213.27 70.83,-386.49 211.72,-518.15 141.66,-131.65 320.28,-197.86 537.4,-197.86zm300.26 1187.19c56.97,-83.92 95.47,-191.71 114.71,-323.36 6.16,-30.8 9.24,-81.61 9.24,-152.44 0,-160.91 -33.87,-303.34 -100.85,-428.07 -67.76,-123.95 -175.54,-186.32 -323.36,-186.32 -172.46,0 -296.42,64.68 -372.64,194.02 -75.45,129.34 -113.18,286.4 -113.18,471.18 0,164.76 36.96,306.42 111.64,424.22 74.68,117.8 190.17,177.08 345.69,177.08 126.26,0 235.59,-58.51 328.75,-176.31zm2576.77 -964.69l-4.62 -171.69 0 -22.33c24.63,6.16 64.67,9.24 120.87,9.24 54.66,0 95.47,-3.08 123.19,-9.24 -11.55,153.21 -17.71,268.7 -17.71,346.46 -3.08,120.11 -4.62,297.18 -4.62,531.23 0,34.65 0.77,87.77 2.31,160.91 1.54,73.15 2.31,127.04 2.31,162.45 0,89.31 1.54,155.53 4.62,198.64 -61.59,-6.16 -100.09,-8.47 -114.72,-8.47 -52.35,0 -91.62,2.31 -116.25,8.47l0 -60.05 4.62 -175.54 0 -26.95c-104.71,184.01 -263.31,276.4 -475.81,276.4 -159.37,0 -284.09,-49.28 -373.4,-147.82 -44.65,-49.28 -72.37,-107.02 -83.92,-171.69 -11.55,-65.44 -17.71,-148.59 -17.71,-249.45l9.24 -423.45 -9.24 -291.79 0 -107.02 0 -22.33c36.96,6.16 80.07,9.24 128.58,9.24 55.43,0 97.01,-3.08 124.72,-9.24 -8.47,73.14 -13.09,145.51 -13.09,216.35 -13.08,233.28 -19.24,419.59 -19.24,559.72 0,146.28 16.93,250.99 50.81,314.89 59.28,119.33 162.45,179.39 310.27,179.39 96.24,0 173.23,-29.26 230.2,-87.77 64.67,-56.21 106.25,-133.97 124.73,-234.82 9.24,-61.6 13.86,-152.45 13.86,-273.32l0 -480.42zm1819.94 1183.34l0 262.54 9.24 365.71 -26.95 -5.39c-37.73,-3.08 -96.24,-4.62 -176.31,-4.62 -9.24,0 -18.48,-1.54 -26.95,-4.62 -7.69,-3.08 -13.08,-4.62 -14.62,-4.62 0,-26.95 3.08,-62.36 9.23,-106.25l4.62 -180.16 10.01 -254.07 0 -1445.88 26.95 4.62 55.43 4.62c58.52,0 101.63,-3.08 129.35,-9.24l0 282.56c0,-3.85 4.62,-10.01 13.86,-19.25 13.85,-25.41 27.71,-50.04 41.57,-73.14 66.98,-81.61 133.19,-138.58 198.64,-172.46 66.21,-33.11 150.13,-50.04 253.29,-50.04 120.88,0 227.13,30.79 317.21,91.62 90.84,61.59 160.14,143.97 207.87,246.37 47.73,103.16 71.6,214.8 71.6,336.44 0,221.74 -52.35,403.43 -157.06,545.1 -117.8,153.21 -279.48,230.2 -484.27,230.2 -200.18,0 -354.16,-93.16 -462.71,-280.25l0 59.29 0 180.92zm752.96 -1123.29c-33.1,-53.12 -78.53,-96.24 -136.27,-130.11 -57.74,-33.11 -118.56,-50.05 -182.47,-50.05 -153.98,0 -264.84,66.99 -332.6,201.72 -67.75,134.73 -101.62,287.17 -101.62,458.86 0,84.69 13.86,177.08 41.57,277.17 26.18,96.24 80.07,171.69 161.68,227.12 56.2,42.34 134.74,63.9 235.59,63.9 72.37,0 139.36,-22.33 200.18,-67.75 60.05,-44.65 106.25,-103.94 137.04,-177.08 19.25,-40.03 35.42,-102.4 48.51,-187.08 13.08,-83.92 20.01,-153.99 20.01,-209.42 0,-161.68 -30.79,-297.18 -91.62,-407.28z"/>
 </g>
</svg>
